<svg width="34" height="35" viewBox="0 0 34 35" fill="none" xmlns="http://www.w3.org/2000/svg">
<path fill-rule="evenodd" clip-rule="evenodd" d="M6.95792 1.14098C5.74169 1.85817 2.02322 6.25557 0.963639 8.22976C0.71264 8.69738 0.702896 8.74312 0.750659 9.22487C0.911298 10.8425 1.61313 13.1657 2.58199 15.2868C3.64999 17.6251 5.45599 20.4228 7.5113 22.9229C8.55944 24.1979 11.0159 26.7196 12.2363 27.7735C16.6527 31.5873 21.1008 33.9729 25.1096 34.6776C25.4702 34.741 25.8661 34.7928 25.9894 34.7928C26.4129 34.7928 27.5797 34.0243 29.3414 32.585C31.6164 30.7264 33.4066 28.9115 33.7135 28.1526C33.959 27.5456 33.4769 26.9733 31.7114 25.7762C29.1506 24.0399 26.7658 22.6665 25.6387 22.279C25.1112 22.0977 25.07 22.0941 24.8058 22.207C24.4496 22.3591 24.2146 22.5908 23.1978 23.7923C22.7403 24.3329 22.2178 24.922 22.0366 25.1014L21.7072 25.4277L21.235 25.3028C19.6966 24.8957 17.6189 23.7841 15.8938 22.4451C15.1306 21.8526 13.8454 20.5785 13.135 19.7097C11.796 18.0723 10.5259 15.708 10.0157 13.9034L9.84913 13.3137L10.2491 12.8942C10.4691 12.6635 11.0145 12.1578 11.4611 11.7706C12.4913 10.8774 12.8648 10.4814 13.007 10.1315C13.1117 9.87372 13.109 9.81565 12.9707 9.35696C12.557 7.98526 9.53435 2.7723 8.44206 1.54667C7.83472 0.865171 7.55515 0.78881 6.95792 1.14098ZM18.4374 2.13155V3.34123L18.7881 3.34183C20.3256 3.34456 22.3677 3.85262 23.9533 4.62697C26.6616 5.94952 28.7077 7.99962 30.0273 10.7127C30.8542 12.4128 31.2057 13.6928 31.3718 15.6081L31.4619 16.6477H32.6272H33.7926V16.3155C33.7926 15.7345 33.6488 14.4452 33.4881 13.5857C33.0511 11.2481 31.8344 8.58087 30.387 6.78775C27.7421 3.51096 24.1978 1.519 20.1494 1.034C19.6347 0.972304 19.0388 0.921875 18.8254 0.921875H18.4374V2.13155ZM18.4374 8.15824V9.36784L19.0205 9.41767C20.7426 9.56479 22.2378 10.2987 23.4943 11.6135C24.6887 12.8635 25.3539 14.3409 25.497 16.0617L25.5457 16.6477H26.7162H27.8868V16.336C27.8868 15.2931 27.4338 13.4452 26.922 12.4009C26.0215 10.5628 24.4231 8.90748 22.6822 8.01006C21.5847 7.4443 20.3549 7.09682 19.1096 7.0005L18.4374 6.94856V8.15824Z" fill="white"/>
</svg>
