<svg width="27" height="31" viewBox="0 0 27 31" fill="none" xmlns="http://www.w3.org/2000/svg">
<path fill-rule="evenodd" clip-rule="evenodd" d="M2.14745 0.544149C1.49835 0.720739 0.989221 1.24321 0.817988 1.90838C0.767759 2.10355 0.760693 3.76384 0.760693 15.4026C0.760693 30.0295 0.74107 28.8706 0.996863 29.3561C1.13903 29.626 1.47965 29.9654 1.74474 30.1013C2.20421 30.3369 1.60987 30.3224 10.8083 30.3224H19.2128L22.8897 26.6021L26.5666 22.8818V12.5063C26.5666 1.18061 26.5815 1.94444 26.3512 1.48464C26.2141 1.21072 25.8806 0.866752 25.6115 0.721672C25.1329 0.463566 26.0894 0.482449 13.646 0.485286C3.91228 0.4875 2.32583 0.495621 2.14745 0.544149ZM24.7233 11.6726V20.9975H21.8513C18.7329 20.9975 18.77 20.9952 18.3405 21.2154C18.0697 21.3542 17.7298 21.6916 17.5864 21.9638C17.3461 22.4199 17.3502 22.3576 17.3502 25.5516V28.4574H9.97709H2.60397V15.4026V2.3477H13.6636H24.7233V11.6726ZM5.03384 6.14193C4.72543 6.25243 4.44725 6.66416 4.44725 7.01016C4.44725 7.36936 4.75531 7.79675 5.08533 7.8954C5.31524 7.96413 22.0121 7.96413 22.242 7.8954C22.4529 7.83234 22.771 7.51048 22.8333 7.29705C22.9339 6.95281 22.8666 6.66249 22.6227 6.38803C22.3205 6.0479 23.1787 6.07728 13.6472 6.08073C6.24848 6.08342 5.17588 6.09103 5.03384 6.14193ZM5.03384 11.7369C4.72543 11.8474 4.44725 12.2591 4.44725 12.6051C4.44725 12.9643 4.75531 13.3917 5.08533 13.4903C5.31524 13.5591 22.0121 13.5591 22.242 13.4903C22.4529 13.4273 22.771 13.1054 22.8333 12.892C22.9339 12.5478 22.8666 12.2574 22.6227 11.983C22.3205 11.6428 23.1787 11.6722 13.6472 11.6757C6.24848 11.6784 5.17588 11.686 5.03384 11.7369ZM5.03384 17.3318C4.72543 17.4423 4.44725 17.8541 4.44725 18.2C4.44725 18.5592 4.75531 18.9866 5.08533 19.0853C5.31524 19.154 22.0121 19.154 22.242 19.0853C22.4529 19.0222 22.771 18.7004 22.8333 18.4869C22.9339 18.1427 22.8666 17.8524 22.6227 17.5779C22.3205 17.2378 23.1787 17.2672 13.6472 17.2706C6.24848 17.2733 5.17588 17.2809 5.03384 17.3318ZM23.9553 22.8723C23.9553 22.8777 22.8839 23.9661 21.5744 25.2909L19.1935 27.6996V25.281V22.8625H21.5744C22.8839 22.8625 23.9553 22.8669 23.9553 22.8723Z" fill="white"/>
</svg>
