<svg width="32" height="25" viewBox="0 0 32 25" fill="none" xmlns="http://www.w3.org/2000/svg">
<path fill-rule="evenodd" clip-rule="evenodd" d="M10.8596 0.97113C10.7581 0.985482 10.4535 1.02651 10.1827 1.06239C5.61496 1.667 1.62812 5.23719 0.496624 9.73618C0.0311242 11.5869 0.0311242 13.7119 0.496624 15.5627C1.41753 19.2244 4.2717 22.3653 7.84412 23.6482C8.55935 23.905 9.47066 24.1374 10.2135 24.2522C10.9547 24.3669 30.1798 24.3717 30.5562 24.2573C30.876 24.1602 31.2885 23.808 31.4627 23.4833C31.5917 23.243 31.5991 23.1556 31.5991 21.8799C31.5991 20.6686 31.5869 20.5061 31.4799 20.2912C31.328 19.9859 31.0379 19.6968 30.7316 19.5454C30.3914 19.3772 29.7174 19.3851 29.3836 19.5614C28.8761 19.8294 28.5565 20.3504 28.5542 20.9139L28.5528 21.2359H26.0912H23.6295V16.4785C23.6295 11.3223 23.6146 11.0355 23.2809 9.76684C22.7218 7.64084 21.7242 5.90079 20.1855 4.36732C18.4171 2.60501 16.2026 1.47313 13.7521 1.07926C13.2139 0.992781 11.2314 0.91863 10.8596 0.97113ZM13.5367 4.82829C16.4042 5.46626 18.7014 7.56853 19.5607 10.3412C19.9891 11.7233 19.9891 13.5755 19.5607 14.9577C18.9195 17.0266 17.4532 18.7685 15.5291 19.7471C14.3806 20.3312 13.502 20.556 12.1785 20.6044C9.82243 20.6905 7.77975 19.8693 6.13296 18.174C5.03407 17.0428 4.35804 15.7674 4.01753 14.1827C3.86109 13.4548 3.86109 11.8441 4.01753 11.1161C4.35804 9.53151 5.03407 8.25612 6.13296 7.12486C7.34145 5.8808 8.87783 5.05803 10.5271 4.77174C11.2104 4.65312 12.8914 4.68471 13.5367 4.82829ZM22.3765 5.36629C22.4022 5.40848 22.5447 5.62235 22.6932 5.84161C23.0534 6.37329 23.6893 7.68905 23.9529 8.44821C24.1409 8.98971 24.3085 9.62044 24.4743 10.4108C24.5228 10.6422 24.5396 10.6573 24.77 10.6761C25.4215 10.7294 25.9523 10.4422 26.0945 9.95943C26.1369 9.81542 26.1535 9.05944 26.1411 7.82999L26.1219 5.92386L25.9446 5.69221C25.6523 5.31054 25.5431 5.28962 23.8432 5.28962C22.6487 5.28962 22.3397 5.30575 22.3765 5.36629ZM11.0135 6.55349C9.59134 6.80973 8.54711 7.33246 7.59598 8.26421C6.7333 9.10937 6.21616 9.98985 5.89135 11.1667C5.70303 11.8489 5.70303 13.45 5.89135 14.1321C6.21616 15.309 6.7333 16.1895 7.59598 17.0347C8.75167 18.1668 10.0023 18.6984 11.6597 18.7619C12.6933 18.8016 13.3967 18.6818 14.2547 18.3199C17.834 16.8102 19.1611 12.4514 17.0167 9.24865C16.3883 8.31015 15.5467 7.58969 14.5033 7.09707C13.6222 6.68118 13.1161 6.56674 12.0597 6.54453C11.5689 6.53423 11.0981 6.53822 11.0135 6.55349Z" fill="white"/>
</svg>
