<svg width="32" height="33" viewBox="0 0 32 33" fill="none" xmlns="http://www.w3.org/2000/svg">
<path fill-rule="evenodd" clip-rule="evenodd" d="M17.0745 0.90565C16.9811 0.94225 16.8243 1.08087 16.7674 1.17728C16.7446 1.21576 16.7224 1.45767 16.7126 1.77209L16.6962 2.30206L16.3178 2.41416C16.1097 2.47582 15.7646 2.59989 15.5508 2.68988C15.337 2.77984 15.158 2.84831 15.153 2.84202C14.9117 2.53875 14.5358 2.13177 14.4463 2.07705C14.3073 1.99198 14.0481 1.97876 13.9102 2.04969C13.8617 2.07462 13.4314 2.41721 12.9541 2.81103C12.0297 3.57363 11.975 3.63461 11.975 3.90313C11.975 4.09478 12.0324 4.19787 12.3341 4.54877C12.472 4.70924 12.6038 4.86468 12.6269 4.89418C12.6627 4.94002 12.6393 4.99199 12.4665 5.25078C12.3552 5.41741 12.1768 5.72513 12.07 5.93464C11.9632 6.14416 11.8574 6.31543 11.8349 6.31523C11.8125 6.31507 11.5942 6.27815 11.3499 6.23318C11.0786 6.18323 10.8582 6.15914 10.7836 6.1713C10.6002 6.20115 10.4124 6.35073 10.351 6.51577C10.2945 6.66791 9.93477 8.6473 9.93595 8.79963C9.93717 8.95494 10.0514 9.15743 10.1876 9.2456C10.2823 9.30688 10.4402 9.34973 10.8228 9.41794L11.332 9.50874L11.3744 9.8643C11.3977 10.0599 11.4551 10.3808 11.5019 10.5775C11.5486 10.7742 11.5891 10.9627 11.5918 10.9963C11.5955 11.0424 11.485 11.1221 11.1417 11.3208C10.611 11.628 10.5279 11.7224 10.5276 12.0181C10.5274 12.1859 10.5512 12.2341 11.0785 13.1362C11.3816 13.6547 11.671 14.1255 11.7216 14.1826C11.8431 14.3195 12.0645 14.4026 12.2286 14.3728C12.2972 14.3603 12.5591 14.2342 12.8105 14.0926L13.2677 13.8351L13.485 14.0311C13.6045 14.1388 13.8355 14.3293 13.9984 14.4542C14.1612 14.5792 14.3355 14.7138 14.3856 14.7534L14.4767 14.8253L14.2951 15.3093C14.1952 15.5755 14.1139 15.8454 14.1142 15.909C14.1152 16.0674 14.2176 16.2766 14.3341 16.3583C14.3872 16.3956 14.9015 16.5948 15.477 16.8009C16.5806 17.1962 16.7381 17.2314 16.9407 17.1282C17.1064 17.0437 17.1929 16.8996 17.3719 16.4091L17.5477 15.9275L18.3355 15.9306L19.1233 15.9336L19.2975 16.4064C19.3933 16.6664 19.4947 16.914 19.523 16.9565C19.6054 17.0804 19.8313 17.1882 20.0016 17.1849C20.1652 17.1818 22.1777 16.4782 22.3207 16.3742C22.3643 16.3425 22.4289 16.2655 22.4643 16.2031C22.5876 15.986 22.5846 15.9121 22.4348 15.4827C22.3584 15.2638 22.2708 15.0266 22.2403 14.9555L22.1846 14.8264L22.5001 14.597C22.6736 14.4708 22.9444 14.2471 23.102 14.0999L23.3884 13.8323L23.8538 14.0981C24.3849 14.4015 24.5096 14.4339 24.7471 14.3304C24.8287 14.2948 24.9327 14.2166 24.9782 14.1565C25.0238 14.0964 25.3012 13.6352 25.5946 13.1315C26.1715 12.1416 26.2037 12.0591 26.1091 11.8151C26.0311 11.6136 26.0158 11.602 25.281 11.1848L25.0487 11.0529L25.138 10.7022C25.1871 10.5094 25.2512 10.1697 25.2804 9.94749C25.3096 9.7252 25.3444 9.53419 25.3576 9.52301C25.3709 9.51182 25.6016 9.46491 25.8702 9.41878C26.4216 9.32409 26.5648 9.25767 26.6656 9.04967C26.6992 8.98036 26.7244 8.86058 26.7225 8.77934C26.7175 8.56243 26.3548 6.57639 26.3017 6.47528C26.2399 6.35747 26.0833 6.23214 25.9395 6.18537C25.8394 6.15282 25.7418 6.16057 25.3068 6.23558C24.9217 6.30201 24.7892 6.31442 24.7792 6.28502C24.7374 6.16125 24.3843 5.52391 24.2148 5.26602C24.1057 5.10007 24.0164 4.95406 24.0164 4.94158C24.0164 4.92907 24.144 4.76992 24.2999 4.58793C24.4558 4.40593 24.6109 4.19865 24.6446 4.12733C24.7461 3.91256 24.7171 3.69449 24.5653 3.53149C24.4526 3.41041 22.921 2.14655 22.796 2.0715C22.6604 1.99 22.3809 1.9807 22.2391 2.05293C22.1862 2.0799 22.0004 2.26955 21.8261 2.47436C21.6519 2.67921 21.5053 2.84682 21.5004 2.84682C21.4954 2.84682 21.3181 2.77358 21.1064 2.68404C20.8947 2.59454 20.556 2.47197 20.3538 2.4117L19.9862 2.30209L19.9697 1.7883C19.9526 1.25447 19.928 1.15407 19.7827 1.02446C19.6175 0.87709 19.5418 0.869212 18.3176 0.871352C17.6308 0.872584 17.1232 0.886588 17.0745 0.90565ZM19.1018 4.61442C19.9849 4.76386 20.8329 5.17885 21.4706 5.77369C22.1895 6.44419 22.6388 7.23211 22.8528 8.19753C22.9393 8.58739 22.9392 9.58765 22.8527 9.97793C22.652 10.8831 22.2355 11.6389 21.5831 12.2818C20.9307 12.9246 20.1637 13.335 19.245 13.5327C18.8485 13.6181 17.8339 13.6181 17.4373 13.5327C17.1134 13.463 16.5751 13.2836 16.336 13.1656C14.9856 12.4994 14.0522 11.2733 13.8018 9.83678C13.7357 9.45755 13.7367 8.71612 13.8038 8.32308C13.9132 7.68244 14.2014 7.00422 14.6001 6.44915C14.8452 6.10782 15.3802 5.58764 15.7256 5.35488C16.2419 5.00693 16.948 4.71981 17.5351 4.61902C17.9135 4.55405 18.7309 4.55165 19.1018 4.61442ZM20.0684 18.9945C19.6036 19.0347 18.9564 19.1357 17.7819 19.3513C14.7758 19.9034 13.6627 20.0398 10.6755 20.2226C7.27023 20.4309 6.58058 20.5772 5.60888 21.2974C4.91038 21.8152 3.88561 22.8912 2.90114 24.1407C2.12888 25.1208 0.687433 27.1569 0.677432 27.2816C0.675458 27.3059 1.92428 28.5198 3.45258 29.979L6.23125 32.6322L6.43003 32.4544C7.53586 31.4651 8.17909 30.9377 8.89888 30.4304C9.64528 29.9043 10.291 29.5517 10.8235 29.3794L11.1032 29.2889L13.1759 29.265C15.0383 29.2434 15.7027 29.2203 17.749 29.1053C20.5535 28.9477 20.6803 28.9307 21.7463 28.5691C23.8629 27.851 26.5171 26.3897 28.8692 24.6474C29.9908 23.8167 31.0668 22.8865 31.25 22.5895C31.346 22.4339 31.3469 22.0787 31.2521 21.829C30.9975 21.1586 29.9312 20.7599 28.9033 20.9509C28.0215 21.1147 27.205 21.4774 25.0363 22.6687C23.1545 23.7024 22.413 24.0323 21.5439 24.2226C20.2418 24.5077 18.5498 24.5251 16.7486 24.272C16.2551 24.2026 15.6267 24.0913 15.6043 24.0692C15.5819 24.0471 16.5675 23.7371 17.3213 23.5292C19.4278 22.948 19.5377 22.9115 20.0684 22.6166C21.0885 22.0498 21.7147 21.2599 21.8489 20.3709C21.9429 19.7483 21.6639 19.1669 21.1958 19.0097C21.0286 18.9536 20.6082 18.9479 20.0684 18.9945Z" fill="white"/>
</svg>
