<svg width="33" height="33" viewBox="0 0 33 33" fill="none" xmlns="http://www.w3.org/2000/svg">
<path fill-rule="evenodd" clip-rule="evenodd" d="M11.9844 0.881921C11.9728 0.893312 11.8563 0.917049 11.7256 0.934716C11.5948 0.952383 11.4567 0.980043 11.4185 0.996209C11.3804 1.01237 11.2634 1.05364 11.1585 1.08788C11.0536 1.12216 10.9288 1.17018 10.8811 1.19467C10.8334 1.21912 10.7749 1.23921 10.7511 1.23935C10.7273 1.23945 10.7077 1.25313 10.7077 1.26967C10.7077 1.28624 10.6804 1.30882 10.6471 1.31984C10.5881 1.33931 10.4655 1.40967 10.4303 1.44419C10.4208 1.45357 10.3584 1.48955 10.2916 1.52413C10.0552 1.64667 9.96302 1.70049 9.91711 1.74261C9.89156 1.76608 9.84836 1.78524 9.82114 1.78524C9.79389 1.78524 9.77159 1.80059 9.77159 1.81935C9.77159 1.83811 9.74951 1.85345 9.72246 1.85345C9.69545 1.85345 9.66817 1.86495 9.66179 1.87903C9.65544 1.89312 9.54882 1.95717 9.42487 2.02142C9.30092 2.08568 9.10419 2.19693 8.98772 2.26869C8.87126 2.34045 8.75812 2.39914 8.73635 2.39914C8.71457 2.39914 8.69675 2.41449 8.69675 2.43325C8.69675 2.45201 8.67446 2.46736 8.64721 2.46736C8.61999 2.46736 8.57703 2.48656 8.55175 2.50999C8.49375 2.56381 8.25856 2.6988 8.13333 2.75016C8.0809 2.77168 8.03798 2.80125 8.03798 2.81588C8.03798 2.83055 8.02293 2.84252 8.00452 2.84252C7.98611 2.84252 7.834 2.92335 7.66647 3.02212C7.49893 3.12089 7.30338 3.2318 7.23185 3.2686C7.16036 3.3054 7.10183 3.34735 7.10183 3.36184C7.10183 3.37634 7.0881 3.38821 7.07132 3.38821C7.05457 3.38821 6.84782 3.49847 6.61191 3.63326C6.37603 3.76804 6.14803 3.89468 6.10528 3.91463C6.06253 3.93461 6.02741 3.96248 6.02727 3.97653C6.02713 3.99058 6.00879 4.00211 5.98656 4.00211C5.96434 4.00211 5.83348 4.07117 5.6958 4.15559C5.55812 4.24 5.4281 4.30906 5.40684 4.30906C5.38559 4.30906 5.36808 4.32059 5.36794 4.33464C5.3678 4.34869 5.33268 4.37656 5.28993 4.39654C5.24718 4.41649 5.01917 4.54313 4.7833 4.67791C4.54739 4.8127 4.34064 4.92296 4.32389 4.92296C4.30711 4.92296 4.29338 4.93483 4.29338 4.94933C4.29338 4.96382 4.23485 5.00577 4.16336 5.04257C4.09186 5.07937 3.89628 5.19028 3.72874 5.28905C3.5612 5.38782 3.4091 5.46865 3.39069 5.46865C3.37227 5.46865 3.35723 5.48062 3.35723 5.49529C3.35723 5.50992 3.31434 5.53949 3.26188 5.56101C3.13664 5.61237 2.90146 5.74736 2.84345 5.80118C2.81818 5.82465 2.77522 5.84381 2.748 5.84381C2.72075 5.84381 2.69845 5.85916 2.69845 5.87792C2.69845 5.89668 2.68178 5.91203 2.66136 5.91203C2.64097 5.91203 2.51223 5.97846 2.37531 6.0597C2.23839 6.14091 2.04055 6.25216 1.93567 6.30697C1.83078 6.36174 1.73977 6.41809 1.73342 6.43214C1.72704 6.44619 1.69976 6.45772 1.67275 6.45772C1.64574 6.45772 1.62362 6.47139 1.62362 6.48814C1.62362 6.50485 1.58461 6.52818 1.53693 6.53995C1.48926 6.55171 1.45025 6.5764 1.45025 6.59479C1.45025 6.6132 1.43493 6.62824 1.41621 6.62824C1.39745 6.62824 1.28019 6.6896 1.15561 6.76463C0.913423 6.91043 0.633653 7.17356 0.596658 7.2903C0.584245 7.32949 0.556715 7.37246 0.535427 7.38583C0.484493 7.41793 0.461575 21.4301 0.512474 21.4301C0.531093 21.4301 0.66198 21.4992 0.803304 21.5836C0.944663 21.668 1.07784 21.737 1.09927 21.737C1.12066 21.737 1.1382 21.7524 1.1382 21.7712C1.1382 21.7899 1.16161 21.8053 1.19021 21.8053C1.21882 21.8053 1.24222 21.8206 1.24222 21.8394C1.24222 21.8581 1.26451 21.8735 1.29177 21.8735C1.31898 21.8735 1.36219 21.8927 1.38774 21.9161C1.43365 21.9582 1.52587 22.012 1.76227 22.1346C1.82901 22.1692 1.89142 22.2051 1.90099 22.2145C1.91056 22.2239 1.96517 22.256 2.02238 22.2859C2.07956 22.3158 2.28239 22.4295 2.47308 22.5386C2.66378 22.6476 2.89782 22.7815 2.99317 22.836C3.08852 22.8905 3.20942 22.9528 3.26188 22.9745C3.3143 22.9962 3.35723 23.0259 3.35723 23.0405C3.35723 23.0552 3.373 23.0672 3.39228 23.0672C3.41156 23.0672 3.56606 23.1516 3.73561 23.2547C3.90515 23.3579 4.061 23.4423 4.08195 23.4423C4.10289 23.4423 4.12002 23.4559 4.12002 23.4724C4.12002 23.489 4.1473 23.5112 4.18069 23.5218C4.21408 23.5324 4.31938 23.5868 4.41473 23.6427C4.59856 23.7506 4.754 23.8369 4.95212 23.9412C5.01886 23.9764 5.08127 24.0127 5.0908 24.0221C5.10901 24.04 5.23334 24.1092 5.43753 24.215C5.50427 24.2496 5.56668 24.2856 5.57622 24.295C5.6017 24.32 5.72427 24.3941 5.78428 24.4209C5.81289 24.4336 5.92991 24.499 6.04433 24.5663C6.15874 24.6335 6.31477 24.7189 6.39105 24.7561C6.46733 24.7932 6.53494 24.8351 6.54128 24.8492C6.54766 24.8632 6.57495 24.8748 6.60196 24.8748C6.629 24.8748 6.65109 24.8901 6.65109 24.9089C6.65109 24.9276 6.67338 24.943 6.70064 24.943C6.72785 24.943 6.77081 24.9622 6.79609 24.9856C6.8541 25.0394 7.08928 25.1744 7.21451 25.2258C7.26697 25.2473 7.30986 25.2769 7.30986 25.2915C7.30986 25.3062 7.32519 25.3181 7.34391 25.3181C7.36267 25.3181 7.47577 25.377 7.59528 25.4489C7.71483 25.5208 7.89842 25.6265 8.00331 25.6839C8.10819 25.7412 8.27982 25.8364 8.3847 25.8954C8.48959 25.9544 8.61441 26.021 8.66208 26.0434C8.70975 26.0658 8.75656 26.0921 8.7661 26.1019C8.79935 26.1359 8.92257 26.207 8.9828 26.2269C9.01615 26.2379 9.04348 26.2605 9.04348 26.2771C9.04348 26.2936 9.0613 26.3072 9.08307 26.3072C9.10484 26.3072 9.22148 26.3686 9.34225 26.4436C9.46304 26.5187 9.5698 26.58 9.57951 26.58C9.58925 26.58 9.67153 26.6247 9.7624 26.6793C10.0399 26.846 10.3041 26.9916 10.4044 27.033C10.4568 27.0547 10.4997 27.0845 10.4997 27.0991C10.4997 27.1138 10.5148 27.1257 10.5332 27.1257C10.5516 27.1257 10.7081 27.2102 10.8811 27.3133C11.0541 27.4165 11.2106 27.5009 11.229 27.5009C11.2475 27.5009 11.2625 27.5129 11.2625 27.5275C11.2625 27.5422 11.3054 27.5719 11.3578 27.5936C11.4653 27.638 11.7569 27.7996 11.9906 27.9443C12.1786 28.0606 12.4954 28.2383 12.6147 28.2944C12.6624 28.3168 12.7092 28.3431 12.7187 28.3529C12.7431 28.3778 12.8648 28.4519 12.9268 28.4794C12.9554 28.4922 13.0766 28.5611 13.1961 28.6327C13.3156 28.7043 13.419 28.7628 13.4259 28.7628C13.4328 28.7628 13.6315 28.8731 13.8674 29.0079C14.1033 29.1426 14.3313 29.2693 14.3741 29.2892C14.4168 29.3092 14.4519 29.337 14.4521 29.3511C14.4522 29.3652 14.4695 29.3767 14.4904 29.3767C14.5114 29.3767 14.6672 29.4611 14.8368 29.5643C15.0063 29.6675 15.1595 29.7519 15.1772 29.7519C15.1949 29.7519 15.2145 29.7634 15.2209 29.7775C15.2324 29.8029 15.2874 29.8338 15.6832 30.0372C15.7976 30.096 15.8964 30.1556 15.9028 30.1697C15.9092 30.1837 15.9281 30.1952 15.9449 30.1952C15.9617 30.1952 16.117 30.2797 16.29 30.3828C16.463 30.486 16.6195 30.5704 16.6379 30.5704C16.6563 30.5704 16.6714 30.5858 16.6714 30.6045C16.6714 30.6233 16.6896 30.6386 16.7118 30.6386C16.734 30.6386 16.8649 30.7077 17.0026 30.7921C17.1402 30.8765 17.2703 30.9456 17.2915 30.9456C17.3128 30.9456 17.3301 30.9591 17.3301 30.9757C17.3301 30.9923 17.3575 31.0147 17.3908 31.0255C17.4242 31.0363 17.5139 31.0805 17.5902 31.1236C17.8237 31.2559 18.1412 31.4379 18.2143 31.4814C18.2524 31.5041 18.307 31.5337 18.3356 31.5471C18.3642 31.5606 18.3955 31.5803 18.4051 31.5911C18.4237 31.6119 18.6828 31.7534 18.8121 31.8134C18.8549 31.8332 18.89 31.8609 18.8901 31.875C18.8903 31.889 18.9081 31.9005 18.9298 31.9005C18.9675 31.9005 19.7559 32.3649 19.7919 32.4083C19.8014 32.4198 19.8638 32.4539 19.9306 32.4841C19.9973 32.5143 20.0973 32.5603 20.1527 32.5864C20.2265 32.6211 20.4028 32.6333 20.8115 32.6317C21.3487 32.6297 21.3759 32.6262 21.5428 32.5381C21.6382 32.4877 21.7357 32.4464 21.7595 32.4464C21.7834 32.4463 21.8029 32.4326 21.8029 32.4161C21.8029 32.3995 21.8302 32.377 21.8635 32.3659C21.8969 32.3549 21.9548 32.3263 21.9922 32.3023C22.0857 32.2423 22.2753 32.1326 22.4616 32.0306C22.5474 31.9836 22.7737 31.856 22.9644 31.747C23.1551 31.638 23.3579 31.5243 23.4151 31.4944C23.4723 31.4646 23.5243 31.4286 23.5307 31.4145C23.5371 31.4004 23.5632 31.3889 23.5889 31.3889C23.6146 31.3889 23.6562 31.3697 23.6815 31.3463C23.7395 31.2925 23.9747 31.1575 24.0999 31.1061C24.1524 31.0846 24.1952 31.0551 24.1952 31.0404C24.1952 31.0258 24.2186 31.0138 24.2473 31.0138C24.2759 31.0138 24.2993 30.9987 24.2993 30.9803C24.2993 30.9619 24.3383 30.9373 24.3859 30.9255C24.4336 30.9137 24.4726 30.8904 24.4726 30.8737C24.4726 30.8569 24.4904 30.8433 24.5122 30.8433C24.534 30.8433 24.6471 30.7843 24.7636 30.7122C24.8801 30.6401 25.069 30.5301 25.1834 30.4678C25.6368 30.221 25.7113 30.1791 25.9208 30.0531C26.0403 29.9812 26.1534 29.9224 26.1722 29.9224C26.1909 29.9224 26.2062 29.9104 26.2062 29.8958C26.2062 29.8811 26.2491 29.8516 26.3016 29.83C26.4268 29.7787 26.662 29.6437 26.72 29.5899C26.7453 29.5664 26.7882 29.5472 26.8155 29.5472C26.8427 29.5472 26.865 29.5337 26.865 29.5171C26.865 29.5005 26.8923 29.4784 26.9257 29.4679C26.959 29.4574 27.158 29.3473 27.3678 29.2233C27.5775 29.0993 27.7921 28.98 27.8445 28.9581C27.897 28.9363 27.9398 28.9064 27.9398 28.8918C27.9398 28.8771 27.9621 28.8651 27.9894 28.8651C28.0166 28.8651 28.0596 28.8459 28.0848 28.8225C28.1429 28.7687 28.378 28.6337 28.5033 28.5823C28.5557 28.5608 28.5986 28.5312 28.5986 28.5166C28.5986 28.5019 28.6137 28.49 28.6321 28.49C28.6505 28.49 28.807 28.4056 28.98 28.3024C29.153 28.1992 29.3025 28.1148 29.3123 28.1148C29.3221 28.1148 29.4118 28.0634 29.5117 28.0005C29.6868 27.8904 29.9389 27.7479 30.1935 27.6153C30.2603 27.5805 30.3227 27.5444 30.3322 27.535C30.358 27.5097 30.4808 27.4356 30.5403 27.4094C30.5689 27.3968 30.6001 27.3777 30.6096 27.367C30.6192 27.3562 30.6816 27.3191 30.7483 27.2845C30.9847 27.162 31.077 27.1082 31.1229 27.0661C31.1484 27.0426 31.1916 27.0234 31.2188 27.0234C31.2461 27.0234 31.2684 27.0115 31.2684 26.9968C31.2684 26.9822 31.3113 26.9521 31.3637 26.9301C31.4162 26.9081 31.5527 26.8353 31.6671 26.7683C31.7815 26.7013 31.9181 26.6282 31.9705 26.6058C32.023 26.5834 32.0658 26.5548 32.0658 26.5422C32.0658 26.5295 32.1048 26.5096 32.1525 26.4978C32.2002 26.4861 32.2392 26.4614 32.2392 26.443C32.2392 26.4246 32.2613 26.4095 32.2883 26.4095C32.3153 26.4095 32.3426 26.398 32.349 26.3839C32.3554 26.3699 32.4152 26.3307 32.4819 26.297C32.5487 26.2632 32.6345 26.2127 32.6726 26.1847C32.7416 26.134 32.742 26.094 32.742 19.118C32.742 12.2906 32.7402 12.0986 32.6759 11.9666C32.6396 11.892 32.5893 11.8107 32.564 11.7859C32.5388 11.761 32.4983 11.7144 32.474 11.6821C32.4128 11.6007 32.1509 11.403 32.1042 11.403C32.0831 11.403 32.0658 11.3877 32.0658 11.3689C32.0658 11.3502 32.0498 11.3348 32.0301 11.3348C32.0104 11.3348 31.8895 11.2757 31.7614 11.2033C31.6333 11.131 31.4738 11.0428 31.4071 11.0072C31.3404 10.9717 31.2779 10.9349 31.2684 10.9256C31.2429 10.9006 31.1204 10.8264 31.0603 10.7997C31.0317 10.7869 30.9106 10.718 30.791 10.6464C30.6715 10.5748 30.5584 10.5163 30.5396 10.5163C30.5209 10.5163 30.5056 10.5009 30.5056 10.4822C30.5056 10.4634 30.488 10.4481 30.4667 10.4481C30.4452 10.4481 30.3165 10.3821 30.1806 10.3016C30.0447 10.221 29.8789 10.1285 29.8121 10.096C29.6821 10.0327 29.5629 9.96415 29.5347 9.93649C29.5252 9.92711 29.4667 9.89256 29.4047 9.85975C29.3428 9.82694 29.2414 9.77319 29.1794 9.74038C29.1175 9.70757 29.0589 9.67125 29.0494 9.65973C29.0398 9.64816 28.9969 9.62797 28.954 9.61477C28.9111 9.60161 28.876 9.57654 28.876 9.55905C28.876 9.54155 28.8526 9.52722 28.824 9.52722C28.7954 9.52722 28.772 9.51525 28.772 9.50059C28.772 9.48596 28.7291 9.45622 28.6766 9.43453C28.6242 9.41284 28.4955 9.3464 28.3906 9.28688C28.2857 9.22737 28.1141 9.13194 28.0092 9.07478C27.9043 9.01762 27.7232 8.91189 27.6067 8.83979C27.4903 8.76769 27.3771 8.70869 27.3553 8.70869C27.3336 8.70869 27.3157 8.69334 27.3157 8.67458C27.3157 8.65583 27.2975 8.64048 27.2753 8.64048C27.2531 8.64048 27.1222 8.57141 26.9846 8.487C26.8469 8.40259 26.7169 8.33353 26.6956 8.33353C26.6743 8.33353 26.657 8.32156 26.657 8.30689C26.657 8.29226 26.6141 8.26262 26.5616 8.24107C26.5092 8.21951 26.4195 8.17412 26.3623 8.14018C25.7732 7.79067 25.6478 7.71963 25.6201 7.71963C25.6024 7.71963 25.5827 7.7081 25.5763 7.69405C25.57 7.67999 25.5141 7.64163 25.4521 7.60878C25.3901 7.57594 25.2887 7.52226 25.2267 7.48941C25.1647 7.45657 25.1089 7.4182 25.1025 7.40415C25.0961 7.3901 25.07 7.37857 25.0443 7.37857C25.0186 7.37857 24.977 7.3592 24.9518 7.33553C24.9267 7.31186 24.867 7.27404 24.8193 7.25149C24.7118 7.20061 24.3635 7.0059 24.3166 6.97043C24.2839 6.94573 24.0484 6.81566 23.7808 6.67439C23.7149 6.63964 23.6397 6.59202 23.6136 6.56856C23.5875 6.54513 23.5439 6.52593 23.5167 6.52593C23.4894 6.52593 23.4671 6.51058 23.4671 6.49182C23.4671 6.47306 23.4437 6.45772 23.4151 6.45772C23.3865 6.45772 23.3631 6.44574 23.3631 6.43108C23.3631 6.41645 23.3202 6.38688 23.2678 6.36536C23.1425 6.314 22.9073 6.17901 22.8493 6.12519C22.8241 6.10176 22.7811 6.08255 22.7539 6.08255C22.7266 6.08255 22.7043 6.07058 22.7043 6.05592C22.7043 6.04129 22.6614 6.011 22.609 5.98863C22.5565 5.96622 22.42 5.8931 22.3056 5.82611C22.1912 5.75913 22.0547 5.68628 22.0022 5.66425C21.9498 5.64225 21.9069 5.61224 21.9069 5.59761C21.9069 5.58294 21.8846 5.57097 21.8573 5.57097C21.8301 5.57097 21.7872 5.5518 21.7619 5.52834C21.7039 5.47452 21.4687 5.33953 21.3435 5.28817C21.291 5.26664 21.2481 5.23708 21.2481 5.22244C21.2481 5.20778 21.2323 5.19581 21.213 5.19581C21.1938 5.19581 21.0417 5.11494 20.875 5.01607C20.6033 4.85496 20.4913 4.79186 20.2599 4.66969C20.2218 4.64954 20.1828 4.62539 20.1732 4.61601C20.1637 4.60663 20.1013 4.5699 20.0345 4.5344C19.9678 4.49886 19.8671 4.44514 19.8108 4.41503C19.7545 4.38488 19.687 4.34105 19.6609 4.31759C19.6349 4.29416 19.5926 4.27496 19.5669 4.27496C19.5413 4.27496 19.5151 4.26343 19.5087 4.24938C19.5024 4.23529 19.4465 4.19696 19.3845 4.16411C19.3225 4.13127 19.2211 4.07759 19.1591 4.04474C19.0972 4.0119 19.0386 3.97738 19.0291 3.968C19.0195 3.95863 18.9805 3.93424 18.9424 3.91378C18.6741 3.76992 18.5006 3.67306 18.3311 3.57238C18.2237 3.5086 18.1184 3.45642 18.0971 3.45642C18.0757 3.45642 18.0583 3.44107 18.0583 3.42231C18.0583 3.40356 18.0349 3.38821 18.0062 3.38821C17.9776 3.38821 17.9542 3.37286 17.9542 3.3541C17.9542 3.33534 17.9319 3.32 17.9047 3.32C17.8775 3.32 17.8343 3.30083 17.8087 3.27736C17.7628 3.23524 17.6706 3.18143 17.4342 3.05888C17.3674 3.0243 17.305 2.98832 17.2955 2.97894C17.2859 2.96956 17.2313 2.93743 17.1741 2.90756C17.1169 2.87768 16.9141 2.76397 16.7234 2.6549C16.5327 2.54583 16.2986 2.412 16.2033 2.3575C16.1079 2.303 15.987 2.24069 15.9346 2.219C15.8821 2.19731 15.8392 2.16757 15.8392 2.15294C15.8392 2.13827 15.8235 2.1263 15.8042 2.1263C15.7849 2.1263 15.6304 2.04189 15.4609 1.93872C15.2913 1.83555 15.1355 1.75114 15.1145 1.75114C15.0936 1.75114 15.0764 1.73756 15.0764 1.72102C15.0764 1.70445 15.0491 1.68224 15.0158 1.67167C14.9824 1.6611 14.8771 1.60667 14.7817 1.55073C14.2899 1.2621 13.8114 1.03492 13.6953 1.03492C13.6616 1.03492 13.6192 1.021 13.6011 1.00402C13.5415 0.948086 13.0568 0.890106 12.5268 0.875543C12.24 0.867664 11.996 0.870529 11.9844 0.881921ZM14.8684 3.38821C14.9542 3.44431 15.044 3.49029 15.0678 3.49039C15.0916 3.49046 15.1111 3.50587 15.1111 3.52463C15.1111 3.54339 15.1262 3.55874 15.1446 3.55874C15.163 3.55874 15.3195 3.64315 15.4925 3.74632C15.6655 3.84949 15.8298 3.9339 15.8578 3.9339C15.8857 3.9339 15.9086 3.94822 15.9086 3.96572C15.9086 3.98322 15.9437 4.00828 15.9866 4.02145C16.0295 4.03465 16.0724 4.05484 16.0819 4.0664C16.1074 4.09723 16.3617 4.23966 16.472 4.28491C16.5245 4.30643 16.5674 4.336 16.5674 4.35064C16.5674 4.3653 16.5824 4.37727 16.6008 4.37727C16.6192 4.37727 16.7758 4.46168 16.9487 4.56485C17.1217 4.66802 17.2783 4.75243 17.2967 4.75243C17.3151 4.75243 17.3301 4.76441 17.3301 4.77907C17.3301 4.7937 17.373 4.82371 17.4255 4.84571C17.4779 4.86775 17.6145 4.94073 17.7289 5.00795C17.8433 5.07514 17.9759 5.14857 18.0236 5.17108C18.0713 5.19362 18.1309 5.23141 18.1561 5.25508C18.1813 5.27875 18.2242 5.29812 18.2514 5.29812C18.2787 5.29812 18.3011 5.30965 18.3012 5.3237C18.3014 5.33776 18.3365 5.36548 18.3793 5.3853C18.4943 5.43861 18.7662 5.58543 18.7863 5.60508C18.7959 5.61445 18.8349 5.63904 18.8731 5.65968C18.9112 5.68035 19.0906 5.7814 19.2718 5.8842C19.6107 6.07659 19.8929 6.23265 20.1019 6.34336C20.1675 6.37811 20.2522 6.43323 20.29 6.46587C20.3279 6.49847 20.3912 6.53507 20.4307 6.54718C20.4703 6.55932 20.5105 6.57865 20.52 6.59022C20.5296 6.60174 20.5842 6.63585 20.6414 6.666C20.9396 6.82312 20.989 6.85201 20.9996 6.87551C21.006 6.88956 21.0258 6.90109 21.0436 6.90109C21.0615 6.90109 21.1343 6.93704 21.2055 6.98097C21.335 7.06101 21.6101 7.21398 21.8375 7.33242C21.9042 7.36718 21.9667 7.4033 21.9762 7.41267C21.9944 7.43055 22.1187 7.49971 22.3229 7.60558C22.3897 7.64016 22.4521 7.67727 22.4616 7.68801C22.4712 7.69875 22.5024 7.71785 22.531 7.73044C22.5596 7.74299 22.6138 7.77259 22.6515 7.79616C22.8616 7.9276 23.0943 8.06126 23.2938 8.16508C23.4177 8.22957 23.5243 8.2939 23.5307 8.30795C23.5371 8.322 23.5632 8.33353 23.5889 8.33353C23.6146 8.33353 23.6562 8.35273 23.6815 8.37616C23.7395 8.42998 23.9747 8.56497 24.0999 8.61633C24.1524 8.63785 24.1952 8.66742 24.1952 8.68205C24.1952 8.69672 24.2106 8.70869 24.2293 8.70869C24.248 8.70869 24.3611 8.76752 24.4807 8.83942C24.6002 8.91134 24.7838 9.01707 24.8887 9.07444C24.9936 9.13177 25.1652 9.22737 25.2701 9.28688C25.375 9.3464 25.5037 9.41284 25.5561 9.43453C25.6086 9.45622 25.6515 9.48596 25.6515 9.50059C25.6515 9.51525 25.6749 9.52722 25.7035 9.52722C25.7321 9.52722 25.7555 9.54257 25.7555 9.56133C25.7555 9.58009 25.7778 9.59544 25.805 9.59544C25.8323 9.59544 25.8759 9.61464 25.9019 9.63807C25.9463 9.67797 26.0014 9.70993 26.2842 9.85975C26.3462 9.89256 26.4047 9.92711 26.4142 9.93649C26.4315 9.95348 26.4982 9.99069 26.7957 10.1495C27.1315 10.3288 27.1929 10.3643 27.2386 10.4054C27.2647 10.4289 27.3083 10.4481 27.3355 10.4481C27.3628 10.4481 27.3852 10.4596 27.3854 10.4737C27.3855 10.4877 27.4206 10.5154 27.4634 10.5353C27.5784 10.5886 27.8503 10.7354 27.8704 10.755C27.897 10.781 28.0106 10.8466 28.1753 10.931C28.3709 11.0312 28.4191 11.0881 28.3338 11.1178C27.8652 11.2809 27.4141 11.6251 27.267 11.9317C27.231 12.0067 27.1882 12.0947 27.172 12.1273C27.1332 12.2049 27.1337 12.5874 27.1726 12.6111C27.1892 12.6212 27.2123 12.6719 27.2239 12.7239C27.2561 12.8678 27.4653 13.1229 27.6773 13.277C27.7819 13.3531 27.8825 13.4153 27.9008 13.4153C27.9191 13.4153 27.9393 13.4268 27.9456 13.4408C27.9589 13.4702 28.2296 13.6012 28.3507 13.6368C28.4441 13.6643 28.4233 13.6947 28.2497 13.7851C28.0019 13.9142 27.8895 13.9793 27.8436 14.0206C27.8175 14.0441 27.7739 14.0633 27.7467 14.0633C27.7194 14.0633 27.6971 14.0786 27.6971 14.0974C27.6971 14.1161 27.6737 14.1315 27.6451 14.1315C27.6165 14.1315 27.5931 14.1435 27.5931 14.1581C27.5931 14.1728 27.5502 14.2023 27.4978 14.2238C27.3725 14.2752 27.1374 14.4102 27.0793 14.464C27.0541 14.4875 27.0111 14.5066 26.9839 14.5066C26.9566 14.5066 26.9344 14.5186 26.9344 14.5333C26.9344 14.5479 26.8915 14.5779 26.839 14.5999C26.7865 14.622 26.65 14.6948 26.5356 14.7618C26.4212 14.8288 26.2847 14.9019 26.2322 14.9243C26.1798 14.9467 26.1369 14.977 26.1369 14.9916C26.1369 15.0063 26.1146 15.0182 26.0873 15.0182C26.0601 15.0182 26.0172 15.0374 25.9919 15.0609C25.9339 15.1147 25.6987 15.2497 25.5735 15.301C25.521 15.3226 25.4781 15.3521 25.4781 15.3668C25.4781 15.3814 25.4623 15.3934 25.4431 15.3934C25.4238 15.3934 25.2693 15.4778 25.0997 15.581C24.9302 15.6841 24.7743 15.7686 24.7534 15.7686C24.7325 15.7686 24.7153 15.7839 24.7153 15.8027C24.7153 15.8214 24.7 15.8368 24.6812 15.8368C24.6624 15.8368 24.5727 15.8814 24.4818 15.936C24.2044 16.1027 23.9402 16.2483 23.8399 16.2898C23.7874 16.3115 23.7445 16.3412 23.7445 16.3558C23.7445 16.3705 23.7295 16.3825 23.711 16.3825C23.6926 16.3825 23.5361 16.4669 23.3631 16.57C23.1901 16.6732 23.0349 16.7576 23.0181 16.7576C23.0012 16.7576 22.9823 16.7691 22.9759 16.7832C22.9539 16.8319 22.7277 16.9312 22.7074 16.901C22.6673 16.8414 22.3463 16.6174 22.2231 16.5631C21.8951 16.4186 21.6202 16.3262 21.3695 16.2759C20.9228 16.1864 19.4719 16.237 19.3238 16.3472C19.3047 16.3615 19.2458 16.3832 19.1928 16.3957C19.0663 16.4254 18.7337 16.5758 18.5707 16.6771C18.4994 16.7214 18.4165 16.7576 18.3865 16.7576C18.3328 16.7576 18.0619 16.6194 17.8076 16.4623C17.7364 16.4184 17.6636 16.3825 17.6458 16.3825C17.6279 16.3825 17.6081 16.3709 17.6017 16.3569C17.5954 16.3428 17.5395 16.3044 17.4775 16.2716C17.4155 16.2388 17.3141 16.1851 17.2521 16.1522C17.1901 16.1194 17.1342 16.081 17.1279 16.067C17.1215 16.0529 17.0953 16.0414 17.0697 16.0414C17.044 16.0414 17.0017 16.0222 16.9757 15.9988C16.9313 15.9589 16.8762 15.9269 16.5934 15.7771C16.5314 15.7443 16.4729 15.7097 16.4634 15.7003C16.4538 15.691 16.4148 15.6664 16.3767 15.6458C16.3385 15.6252 16.1143 15.4986 15.8784 15.3645C15.6425 15.2303 15.4358 15.1206 15.419 15.1206C15.4022 15.1206 15.3885 15.1086 15.3885 15.0939C15.3885 15.0793 15.3456 15.0497 15.2931 15.0282C15.1679 14.9768 14.9327 14.8418 14.8747 14.788C14.8494 14.7646 14.8065 14.7454 14.7793 14.7454C14.752 14.7454 14.7297 14.7334 14.7297 14.7188C14.7297 14.7041 14.6868 14.6738 14.6344 14.6515C14.5819 14.6291 14.4454 14.5559 14.331 14.4889C14.2166 14.422 14.08 14.3491 14.0276 14.3271C13.9752 14.3051 13.9323 14.2767 13.9323 14.2641C13.9323 14.2515 13.8933 14.2316 13.8456 14.2198C13.7979 14.208 13.7589 14.1833 13.7589 14.1649C13.7589 14.1465 13.7368 14.1315 13.7098 14.1315C13.6828 14.1315 13.6555 14.12 13.6491 14.1059C13.6427 14.0918 13.5869 14.0535 13.5249 14.0206C13.4629 13.9878 13.3615 13.9341 13.2995 13.9013C13.2375 13.8685 13.1816 13.8301 13.1753 13.816C13.1689 13.8019 13.1427 13.7904 13.117 13.7904C13.0914 13.7904 13.0491 13.7712 13.023 13.7478C12.978 13.7073 12.9251 13.6766 12.5942 13.499C12.5161 13.4571 12.3877 13.3828 12.3088 13.3338C12.2299 13.2848 12.1578 13.2447 12.1485 13.2447C12.1393 13.2447 12.0161 13.1757 11.8748 13.0913C11.7334 13.0069 11.6002 12.9378 11.5788 12.9378C11.5574 12.9378 11.5397 12.9263 11.5396 12.9122C11.5395 12.8981 11.5043 12.8704 11.4616 12.8506C11.2945 12.7732 11.0727 12.645 11.0053 12.5869C10.9664 12.5534 10.8991 12.5171 10.8558 12.5065C10.8125 12.4958 10.7771 12.4733 10.7771 12.4566C10.7771 12.4399 10.7573 12.4262 10.7331 12.4262C10.709 12.4262 10.6348 12.3905 10.5684 12.3468C10.502 12.3031 10.3463 12.2149 10.2223 12.1507C10.0984 12.0865 9.98916 12.0248 9.97962 12.0135C9.96305 11.9939 9.71865 11.857 9.45954 11.722C9.3928 11.6873 9.33299 11.6473 9.32664 11.6332C9.32026 11.6192 9.30133 11.6077 9.28452 11.6077C9.2677 11.6077 9.11244 11.5233 8.93946 11.4201C8.76648 11.3169 8.61697 11.2325 8.60719 11.2325C8.59742 11.2325 8.50824 11.1817 8.40904 11.1196C8.30984 11.0575 8.20527 10.9959 8.17667 10.9827C8.14806 10.9696 8.04665 10.912 7.9513 10.8548C7.85595 10.7976 7.73501 10.7331 7.68259 10.7114C7.63016 10.6896 7.58724 10.6599 7.58724 10.6452C7.58724 10.6306 7.57219 10.6186 7.55378 10.6186C7.53537 10.6186 7.37883 10.5342 7.20585 10.431C7.03287 10.3279 6.8776 10.2434 6.86079 10.2434C6.84397 10.2434 6.82504 10.2319 6.81866 10.2179C6.81232 10.2038 6.76031 10.1684 6.7031 10.1394C6.33155 9.95024 6.14685 9.84792 6.1368 9.82565C6.13042 9.81156 6.11076 9.80007 6.09308 9.80007C6.07539 9.80007 5.92218 9.71566 5.75263 9.61249C5.58308 9.50932 5.42723 9.42491 5.40629 9.42491C5.38535 9.42491 5.36822 9.41133 5.36822 9.39479C5.36822 9.37822 5.34093 9.35451 5.30754 9.34213C5.19357 9.29984 5.09084 9.23825 5.09084 9.21219C5.09084 9.19787 5.07413 9.18617 5.05367 9.18617C5.03325 9.18617 4.94657 9.14585 4.86107 9.09657L4.70567 9.00698L4.90552 8.9078C5.01543 8.85326 5.13064 8.78614 5.1615 8.75865C5.19239 8.73116 5.23202 8.70835 5.2496 8.7079C5.31524 8.7063 5.6345 8.344 5.72503 8.16839C5.79815 8.02651 5.81896 7.9377 5.81896 7.76717C5.81896 7.64671 5.80557 7.52151 5.78924 7.48893C5.66883 7.24907 5.6137 7.17073 5.45798 7.01848C5.25505 6.82009 4.96938 6.62824 4.87688 6.62824C4.842 6.62824 4.81346 6.6129 4.81346 6.59414C4.81346 6.57538 4.78617 6.55949 4.75278 6.55881C4.70622 6.55785 4.71631 6.53807 4.79612 6.47371C4.85333 6.4276 4.91131 6.38978 4.92493 6.38968C4.93856 6.38957 5.06536 6.32044 5.20668 6.23603C5.34804 6.15162 5.48121 6.08255 5.50264 6.08255C5.52403 6.08255 5.54158 6.06721 5.54158 6.04845C5.54158 6.02969 5.55663 6.01434 5.57504 6.01434C5.59345 6.01434 5.74999 5.92993 5.92297 5.82676C6.09595 5.72359 6.2525 5.63918 6.27091 5.63918C6.28932 5.63918 6.30437 5.62721 6.30437 5.61254C6.30437 5.59791 6.34729 5.56814 6.39972 5.54641C6.45214 5.52469 6.57308 5.46101 6.66843 5.40494C6.88027 5.28029 7.09295 5.163 7.1969 5.11348C7.23965 5.09312 7.27477 5.06491 7.27491 5.05086C7.27505 5.03681 7.29232 5.02528 7.31326 5.02528C7.3342 5.02528 7.49005 4.94087 7.6596 4.8377C7.82915 4.73453 7.98365 4.65012 8.00293 4.65012C8.0222 4.65012 8.03798 4.63815 8.03798 4.62348C8.03798 4.60885 8.0809 4.57928 8.13333 4.55776C8.25856 4.5064 8.49375 4.37141 8.55175 4.31759C8.57703 4.29416 8.61867 4.27496 8.64433 4.27496C8.66999 4.27496 8.69616 4.26343 8.70254 4.24938C8.70889 4.23532 8.7609 4.19934 8.8181 4.16947C8.87531 4.13959 9.07413 4.0283 9.25986 3.9222C9.44564 3.8161 9.61338 3.72926 9.63259 3.72926C9.65183 3.72926 9.66771 3.71774 9.66785 3.70369C9.66799 3.68963 9.70311 3.66191 9.74586 3.64209C9.91617 3.56317 10.1363 3.43797 10.1472 3.41379C10.1536 3.39974 10.1809 3.38821 10.2079 3.38821C10.2349 3.38821 10.257 3.37286 10.257 3.3541C10.257 3.29541 10.3792 3.31686 10.4584 3.38947C10.561 3.48347 10.9629 3.68684 11.1378 3.73322C11.2159 3.75392 11.311 3.78373 11.3492 3.79942C11.6806 3.93581 12.7751 3.98103 13.3161 3.88073C13.4738 3.85147 13.6268 3.81507 13.656 3.7998C13.6853 3.78455 13.7587 3.76132 13.8193 3.74826C13.8798 3.73516 14.008 3.68718 14.104 3.64161C14.2001 3.59601 14.2904 3.55874 14.3048 3.55874C14.3192 3.55874 14.3993 3.49735 14.4828 3.42231C14.5662 3.34728 14.652 3.28596 14.6734 3.28603C14.6948 3.28613 14.7826 3.3321 14.8684 3.38821ZM10.2223 5.84276C9.94072 5.91233 9.85002 5.9431 9.7001 6.01987C9.50073 6.12198 9.21684 6.38129 9.21684 6.46126C9.21684 6.49462 9.20123 6.53138 9.18216 6.54298C9.11226 6.58548 9.14423 6.86327 9.23535 7.00525C9.33708 7.16377 9.44453 7.27625 9.49421 7.27625C9.51328 7.27625 9.52889 7.28873 9.52889 7.30398C9.52889 7.33396 9.78366 7.4493 9.97962 7.50807C10.3276 7.61243 10.3992 7.6214 10.7771 7.60772C10.9964 7.59978 11.2499 7.57614 11.3406 7.55517C11.7623 7.45756 12.2084 7.1268 12.2917 6.84993C12.3477 6.66392 12.2704 6.43401 12.0935 6.25997C11.9583 6.12706 11.5567 5.91203 11.4435 5.91203C11.4088 5.91203 11.3634 5.89531 11.3426 5.87485C11.2947 5.82779 10.3881 5.8018 10.2223 5.84276ZM15.6312 6.83206C15.2794 6.86831 14.9317 6.92278 14.6604 6.9841C14.5364 7.0121 14.357 7.05184 14.2616 7.07237C14.1663 7.0929 14.0571 7.12199 14.0189 7.13703C13.9808 7.15207 13.856 7.19225 13.7416 7.22636C13.6271 7.26043 13.5187 7.30094 13.5006 7.31639C13.4825 7.33184 13.4435 7.34467 13.4139 7.34491C13.3844 7.34515 13.2144 7.41421 13.0364 7.49838C12.8583 7.58255 12.6983 7.65141 12.681 7.65141C12.6636 7.65141 12.6494 7.66676 12.6494 7.68552C12.6494 7.70428 12.6299 7.72003 12.606 7.72058C12.5617 7.72154 12.2422 7.92883 12.003 8.11184C11.7627 8.2957 11.4129 8.66643 11.2494 8.91056C11.1613 9.04217 11.0891 9.15953 11.0891 9.1714C11.0891 9.18324 11.067 9.24128 11.0399 9.30039C10.9607 9.47334 10.8811 9.84117 10.8811 10.0342C10.8811 10.216 10.9716 10.6759 11.0196 10.738C11.0341 10.7567 11.0577 10.8095 11.072 10.8552C11.1496 11.1037 11.6239 11.6755 12.0036 11.9784C12.2813 12.2 12.9611 12.5772 13.3602 12.7311C13.3983 12.7458 13.4886 12.7829 13.5607 12.8137C13.6329 12.8444 13.7226 12.8696 13.7601 12.8696C13.7976 12.8696 13.8282 12.8832 13.8282 12.8998C13.8282 12.9164 13.9023 12.9409 13.9929 12.9542C14.0835 12.9674 14.1732 12.9896 14.1923 13.0034C14.2114 13.0173 14.3596 13.0555 14.5217 13.0883C14.6838 13.1211 14.8788 13.1621 14.9551 13.1794C15.4277 13.2861 16.9886 13.3495 17.4862 13.2821C17.6387 13.2615 17.8728 13.2299 18.0062 13.2119C18.4603 13.1507 18.9297 13.0562 19.0327 13.0051C19.0632 12.99 19.1607 12.9669 19.2494 12.9538C19.338 12.9407 19.4105 12.9164 19.4105 12.8998C19.4105 12.8832 19.4412 12.8696 19.4786 12.8696C19.5161 12.8696 19.6059 12.8444 19.678 12.8137C19.7502 12.7829 19.8404 12.7458 19.8785 12.7311C20.299 12.5689 20.9866 12.1832 21.255 11.9591C21.5264 11.7324 21.9069 11.3284 21.9069 11.2669C21.9069 11.248 21.9222 11.2325 21.9409 11.2325C21.9596 11.2325 21.9847 11.1941 21.9966 11.1472C22.0086 11.1003 22.0323 11.062 22.0493 11.062C22.0663 11.062 22.0802 11.039 22.0802 11.0108C22.0802 10.9827 22.0958 10.9597 22.1149 10.9597C22.134 10.9597 22.1496 10.9351 22.1496 10.9051C22.1496 10.8751 22.1718 10.8022 22.199 10.7431C22.2702 10.5882 22.3229 10.3045 22.3229 10.0769C22.3229 9.87077 22.2616 9.50062 22.2178 9.44196C22.2037 9.4232 22.1814 9.35799 22.1682 9.29701C22.1549 9.23603 22.1297 9.18617 22.1122 9.18617C22.0946 9.18617 22.0802 9.16905 22.0802 9.14811C22.0802 9.0786 21.7759 8.66026 21.5869 8.46995C21.4844 8.36678 21.3077 8.21334 21.1943 8.129C21.0809 8.04462 20.9803 7.96737 20.9707 7.95734C20.9288 7.91314 20.597 7.71963 20.5632 7.71963C20.5426 7.71963 20.5206 7.7081 20.5142 7.69405C20.5079 7.67999 20.448 7.64241 20.3813 7.61056C20.0627 7.45848 19.8801 7.37857 19.8513 7.37857C19.8339 7.37857 19.7705 7.3565 19.7104 7.32952C19.555 7.25978 19.1032 7.11527 18.9597 7.08949C18.893 7.07748 18.8072 7.0548 18.769 7.03915C18.7309 7.02346 18.5437 6.98513 18.353 6.95395C18.1623 6.92278 17.936 6.88131 17.8502 6.8618C17.6572 6.81787 15.986 6.7955 15.6312 6.83206ZM19.2089 8.36832C19.4041 8.45293 19.6019 8.59836 19.6118 8.66452C19.62 8.7196 19.579 8.76002 19.4298 8.84402C19.3238 8.90364 19.2371 8.97485 19.2371 9.00227C19.2371 9.02966 19.345 9.15827 19.4769 9.28801C19.8074 9.61303 19.8302 9.73138 19.5728 9.78421C19.4082 9.81794 19.124 9.903 19.0556 9.93895C19.0225 9.95634 18.9444 9.97056 18.8822 9.97053C18.7863 9.9705 18.7544 9.94771 18.673 9.82094C18.6202 9.73871 18.5123 9.61982 18.4333 9.55669C18.3542 9.4936 18.2726 9.42576 18.2519 9.40594C18.2312 9.38613 18.1909 9.35915 18.1623 9.34595C18.1337 9.33279 18.0557 9.2892 17.9889 9.24909C17.7178 9.08631 17.1583 9.1418 17.1087 9.33644C17.0778 9.45734 17.1644 9.69581 17.2868 9.82677C17.3107 9.85228 17.3301 9.88943 17.3301 9.90934C17.3301 9.92926 17.3575 9.9706 17.3908 10.0012C17.4558 10.0608 17.4919 10.1148 17.6094 10.3282C17.7274 10.5425 17.7159 10.8086 17.5795 11.0177C17.4565 11.2062 17.3598 11.2831 17.0874 11.4089C16.7134 11.5817 16.5193 11.618 15.9779 11.6162C15.6183 11.615 15.4258 11.5991 15.3018 11.5603C15.02 11.4722 14.7927 11.4881 14.5632 11.6118C14.4545 11.6704 14.3508 11.7318 14.3327 11.7483C14.2926 11.7847 14.0466 11.7883 14.0305 11.7526C14.017 11.7228 13.7842 11.588 13.6472 11.5306C13.5952 11.5089 13.545 11.4714 13.5356 11.4473C13.5184 11.4032 13.6791 11.2325 13.7379 11.2325C13.7915 11.2325 14.0016 11.0611 14.0013 11.0176C14.0011 10.9951 13.9504 10.9385 13.8886 10.8918C13.8268 10.8451 13.6865 10.7194 13.5769 10.6125C13.3161 10.3583 13.3084 10.2256 13.5509 10.1602C13.5985 10.1474 13.6688 10.1249 13.7069 10.1103C14.1552 9.93891 14.383 9.90985 14.383 10.024C14.383 10.0509 14.3947 10.0736 14.409 10.0745C14.4233 10.0754 14.4873 10.1483 14.5513 10.2365C14.6152 10.3248 14.7401 10.4506 14.8287 10.5163C14.9173 10.5819 15.0104 10.6549 15.0356 10.6783C15.0608 10.7018 15.1024 10.7209 15.128 10.7209C15.1537 10.7209 15.1799 10.7324 15.1863 10.7465C15.2125 10.8047 15.5595 10.8918 15.7646 10.8916C16.0629 10.8914 16.2861 10.7692 16.2889 10.6045C16.2903 10.5225 16.1822 10.2775 16.1446 10.2775C16.1292 10.2775 16.1166 10.2616 16.1166 10.242C16.1166 10.2087 15.8501 9.83776 15.7988 9.79973C15.7859 9.79014 15.7646 9.74015 15.7515 9.68858C15.7383 9.63698 15.7137 9.58636 15.6967 9.57606C15.6111 9.52398 15.712 8.91332 15.8062 8.91332C15.8188 8.91332 15.8728 8.87349 15.9262 8.82482C16.0386 8.72233 16.3609 8.57186 16.6397 8.49161C17.003 8.38704 17.9083 8.43612 18.1705 8.57459C18.2757 8.63014 18.4367 8.60907 18.5783 8.52111C18.6539 8.47421 18.7249 8.43584 18.7362 8.43584C18.7474 8.43584 18.7801 8.41282 18.8087 8.38469C18.8683 8.32606 19.0904 8.31699 19.2089 8.36832ZM2.24772 9.3908C2.25725 9.40451 2.2974 9.42562 2.33696 9.43777C2.37649 9.44987 2.43983 9.48647 2.47766 9.51907C2.51552 9.55171 2.60019 9.60669 2.66583 9.64127C2.91124 9.77064 2.99365 9.8177 3.0105 9.8381C3.02004 9.84966 3.06293 9.86985 3.10585 9.88305C3.14878 9.89621 3.18387 9.92128 3.18387 9.93878C3.18387 9.95627 3.20418 9.9706 3.22897 9.9706C3.2538 9.9706 3.41933 10.055 3.59681 10.1582C3.7743 10.2613 3.93213 10.3458 3.94756 10.3458C3.96295 10.3458 3.98074 10.3573 3.98712 10.3713C3.99346 10.3854 4.05327 10.426 4.12002 10.4615C4.18676 10.497 4.28745 10.5507 4.34379 10.5809C4.40013 10.611 4.46757 10.6549 4.49364 10.6783C4.51972 10.7018 4.56202 10.7209 4.58768 10.7209C4.61333 10.7209 4.63951 10.7324 4.64589 10.7465C4.65224 10.7606 4.71204 10.8013 4.77879 10.8371C4.84553 10.8728 4.96401 10.9363 5.04206 10.9782C5.12014 11.0201 5.24496 11.0918 5.31943 11.1374C5.39394 11.1831 5.4783 11.2307 5.50691 11.2433C5.56637 11.2695 5.68918 11.3436 5.71497 11.3689C5.72451 11.3783 5.78304 11.4129 5.845 11.4457C5.90695 11.4785 6.00834 11.5322 6.07033 11.565C6.13232 11.5978 6.18822 11.6362 6.19456 11.6503C6.20094 11.6644 6.22712 11.6759 6.25278 11.6759C6.27843 11.6759 6.32073 11.6951 6.34681 11.7185C6.39119 11.7584 6.44628 11.7904 6.72907 11.9402C6.79103 11.973 6.84955 12.0079 6.85909 12.0176C6.86866 12.0274 6.91547 12.0543 6.96314 12.0774C7.01081 12.1005 7.14344 12.1733 7.25785 12.2393C7.37227 12.3052 7.50489 12.3779 7.55257 12.4008C7.60024 12.4237 7.65988 12.4618 7.68505 12.4855C7.71026 12.5091 7.75318 12.5285 7.7804 12.5285C7.80765 12.5285 7.82995 12.5439 7.82995 12.5626C7.82995 12.5814 7.85203 12.5967 7.87908 12.5967C7.90609 12.5967 7.93337 12.6082 7.93975 12.6223C7.95067 12.6465 8.17077 12.7717 8.34108 12.8506C8.38384 12.8704 8.41896 12.8981 8.4191 12.9122C8.41924 12.9263 8.44167 12.9378 8.46892 12.9378C8.49614 12.9378 8.53976 12.957 8.56583 12.9804C8.61021 13.0203 8.6653 13.0523 8.94809 13.2021C9.01005 13.2349 9.06858 13.2695 9.07811 13.2788C9.08768 13.2882 9.12669 13.3126 9.16483 13.3331C9.20297 13.3536 9.31999 13.4172 9.42487 13.4745C9.52975 13.5319 9.66945 13.6072 9.73532 13.642C9.8012 13.6767 9.87644 13.7244 9.90251 13.7478C9.92859 13.7713 9.97221 13.7904 9.99942 13.7904C10.0267 13.7904 10.0491 13.8019 10.0492 13.816C10.0494 13.8301 10.0845 13.8578 10.1273 13.8776C10.2944 13.9551 10.5161 14.0832 10.5836 14.1413C10.6225 14.1749 10.6898 14.2111 10.7331 14.2218C10.7764 14.2324 10.8118 14.2515 10.8118 14.2641C10.8118 14.2767 10.8547 14.3051 10.9071 14.3271C10.9595 14.3491 11.0961 14.422 11.2105 14.4889C11.3249 14.5559 11.4614 14.6291 11.5139 14.6515C11.5663 14.6738 11.6092 14.7041 11.6092 14.7188C11.6092 14.7334 11.6315 14.7454 11.6588 14.7454C11.686 14.7454 11.7289 14.7646 11.7542 14.788C11.8122 14.8418 12.0474 14.9768 12.1726 15.0282C12.2251 15.0497 12.268 15.0793 12.268 15.0939C12.268 15.1086 12.2817 15.1206 12.2985 15.1206C12.3153 15.1206 12.522 15.2308 12.7579 15.3656C12.9938 15.5004 13.2218 15.627 13.2645 15.647C13.3073 15.667 13.3424 15.6948 13.3426 15.7089C13.3427 15.723 13.3602 15.7345 13.3815 15.7345C13.4027 15.7345 13.5327 15.8035 13.6704 15.8879C13.8081 15.9723 13.939 16.0414 13.9612 16.0414C13.9834 16.0414 14.0017 16.0529 14.0019 16.067C14.002 16.0811 14.0371 16.1088 14.0799 16.1286C14.2502 16.2075 14.4703 16.3327 14.4812 16.3569C14.4876 16.371 14.5068 16.3825 14.524 16.3825C14.5412 16.3825 14.6297 16.4271 14.7205 16.4817C14.998 16.6484 15.2622 16.794 15.3625 16.8355C15.4149 16.8571 15.4578 16.8869 15.4578 16.9015C15.4578 16.9162 15.4736 16.9282 15.4929 16.9282C15.5122 16.9282 15.6667 17.0126 15.8362 17.1157C16.0058 17.2189 16.1616 17.3033 16.1826 17.3033C16.2035 17.3033 16.2208 17.3148 16.2209 17.3289C16.221 17.343 16.2562 17.3709 16.2989 17.3909C16.3417 17.4109 16.5249 17.512 16.706 17.6154C17.0587 17.8168 17.3426 17.9739 17.5381 18.0757C17.6049 18.1105 17.6673 18.1477 17.6768 18.1584C17.6864 18.1692 17.7176 18.1883 17.7462 18.2009C17.8057 18.227 17.9285 18.3012 17.9543 18.3265C17.9638 18.3359 18.0262 18.372 18.093 18.4067C18.3547 18.5431 18.5997 18.6799 18.6824 18.736C18.799 18.815 19.2301 19.0086 19.2895 19.0086C19.3156 19.0086 19.3458 19.0226 19.3566 19.0397C19.3674 19.0569 19.4418 19.0818 19.522 19.0951C19.805 19.1422 19.7919 19.0993 19.7919 19.9741V20.7526L19.7139 20.7287C19.671 20.7156 19.6306 20.6915 19.6243 20.6753C19.6179 20.659 19.5917 20.6457 19.5661 20.6457C19.5404 20.6457 19.4988 20.6265 19.4735 20.603C19.4155 20.5492 19.1803 20.4142 19.0551 20.3629C19.0026 20.3413 18.9597 20.3118 18.9597 20.2971C18.9597 20.2825 18.9363 20.2705 18.9077 20.2705C18.8791 20.2705 18.8557 20.2552 18.8557 20.2364C18.8557 20.2176 18.8334 20.2023 18.8062 20.2023C18.779 20.2023 18.736 20.1829 18.7108 20.1593C18.6856 20.1356 18.626 20.0978 18.5783 20.0752C18.4708 20.0243 18.1225 19.8296 18.0756 19.7942C18.0429 19.7695 17.8074 19.6394 17.5398 19.4981C17.4739 19.4634 17.3987 19.4157 17.3726 19.3923C17.3465 19.3689 17.3042 19.3497 17.2785 19.3497C17.2529 19.3497 17.2267 19.3382 17.2203 19.3241C17.214 19.31 17.1581 19.2716 17.0961 19.2388C17.0341 19.206 16.9327 19.1522 16.8707 19.1194C16.8087 19.0866 16.7528 19.0483 16.7465 19.0342C16.7401 19.0201 16.7205 19.0086 16.7028 19.0086C16.675 19.0086 16.5496 18.9376 15.9606 18.588C15.9034 18.5541 15.8137 18.5087 15.7612 18.4872C15.7088 18.4656 15.6659 18.436 15.6659 18.4213C15.6659 18.4067 15.6477 18.3947 15.6254 18.3947C15.6032 18.3947 15.4724 18.3256 15.3347 18.2412C15.197 18.1568 15.067 18.0877 15.0457 18.0877C15.0245 18.0877 15.0071 18.0724 15.0071 18.0536C15.0071 18.0349 14.99 18.0195 14.969 18.0195C14.9481 18.0195 14.7922 17.9351 14.6227 17.8319C14.4531 17.7288 14.2908 17.6444 14.262 17.6444C14.2332 17.6444 14.2096 17.629 14.2096 17.6103C14.2096 17.5915 14.1873 17.5762 14.1601 17.5762C14.1329 17.5762 14.0899 17.557 14.0646 17.5335C14.0066 17.4797 13.7715 17.3447 13.6462 17.2934C13.5938 17.2718 13.5509 17.2423 13.5509 17.2276C13.5509 17.213 13.5275 17.201 13.4989 17.201C13.4703 17.201 13.4468 17.1856 13.4468 17.1669C13.4468 17.1481 13.4246 17.1328 13.3973 17.1328C13.3701 17.1328 13.3265 17.1136 13.3004 17.0902C13.256 17.0502 13.2009 17.0183 12.9181 16.8685C12.8562 16.8357 12.7976 16.8011 12.7881 16.7917C12.7785 16.7823 12.7395 16.7579 12.7014 16.7375C12.6633 16.717 12.5462 16.6533 12.4414 16.596C12.3365 16.5387 12.1968 16.4634 12.1309 16.4286C12.065 16.3939 11.9898 16.3462 11.9637 16.3228C11.9376 16.2993 11.894 16.2801 11.8668 16.2801C11.8395 16.2801 11.8171 16.2686 11.817 16.2546C11.8168 16.2405 11.7817 16.2128 11.739 16.193C11.5687 16.114 11.3486 15.9888 11.3376 15.9647C11.3313 15.9506 11.312 15.9391 11.2949 15.9391C11.2778 15.9391 11.1581 15.8754 11.0291 15.7975C10.8121 15.6665 10.7298 15.6203 10.3957 15.4413C10.3289 15.4056 10.2691 15.3648 10.2628 15.3508C10.2564 15.3367 10.2302 15.3252 10.2046 15.3252C10.1789 15.3252 10.1373 15.306 10.112 15.2826C10.054 15.2287 9.81882 15.0937 9.69358 15.0424C9.64112 15.0209 9.59823 14.9913 9.59823 14.9767C9.59823 14.962 9.58041 14.95 9.55863 14.95C9.53686 14.95 9.42373 14.8911 9.30726 14.819C9.1908 14.7469 9.02527 14.6497 8.93946 14.6029C8.85364 14.5561 8.68982 14.4669 8.5754 14.4046C8.46098 14.3423 8.30915 14.2553 8.23804 14.2114C8.16689 14.1674 8.0928 14.1315 8.07335 14.1315C8.05389 14.1315 8.03798 14.1172 8.03798 14.0997C8.03798 14.0822 8.00289 14.0571 7.95997 14.0439C7.91704 14.0307 7.87415 14.0105 7.86458 13.999C7.8486 13.9797 7.7864 13.9447 7.5006 13.7941C7.44339 13.7639 7.38878 13.7316 7.37924 13.7222C7.36967 13.7128 7.32983 13.6877 7.29069 13.6665C7.25158 13.6452 7.05391 13.5339 6.8515 13.4192C6.64908 13.3045 6.46656 13.2106 6.4459 13.2106C6.42527 13.2106 6.40825 13.1991 6.40811 13.1851C6.40797 13.171 6.37285 13.1433 6.33009 13.1235C6.21509 13.0702 5.94315 12.9233 5.92308 12.9037C5.88768 12.8691 5.76514 12.7988 5.70627 12.7793C5.67288 12.7683 5.6456 12.7457 5.6456 12.7292C5.6456 12.7126 5.62777 12.699 5.606 12.699C5.58423 12.699 5.46759 12.6377 5.34682 12.5626C5.22603 12.4876 5.11313 12.4262 5.09594 12.4262C5.07874 12.4262 5.04525 12.4032 5.02149 12.375C4.99774 12.3469 4.94903 12.3239 4.91325 12.3239C4.87743 12.3239 4.84813 12.3085 4.84813 12.2898C4.84813 12.271 4.82584 12.2557 4.79859 12.2557C4.77137 12.2557 4.72841 12.2365 4.70313 12.213C4.64513 12.1592 4.40995 12.0242 4.28471 11.9729C4.23229 11.9514 4.18936 11.9218 4.18936 11.9072C4.18936 11.8925 4.17431 11.8805 4.1559 11.8805C4.13749 11.8805 3.98095 11.7961 3.80797 11.6929C3.63499 11.5898 3.47972 11.5054 3.46291 11.5054C3.44609 11.5054 3.42716 11.4939 3.42078 11.4798C3.41444 11.4657 3.34683 11.4238 3.27055 11.3867C3.19427 11.3495 3.03408 11.2613 2.91453 11.1906C2.79502 11.1199 2.68192 11.062 2.66316 11.062C2.64443 11.062 2.62911 11.0469 2.62911 11.0285C2.62911 11.0101 2.5901 10.9854 2.54243 10.9737C2.49476 10.9619 2.45575 10.9386 2.45575 10.9219C2.45575 10.9051 2.44077 10.8914 2.4225 10.8914C2.40419 10.8914 2.31838 10.8494 2.2318 10.7979L2.07435 10.7044V10.0112V9.31799L2.15237 9.34193C2.19529 9.35513 2.23818 9.37709 2.24772 9.3908ZM22.2363 12.5161C22.0208 12.5356 21.8119 12.5973 21.5135 12.7293C21.302 12.8229 20.9707 13.1259 20.9707 13.2258C20.9707 13.2662 20.9531 13.3167 20.9315 13.3379C20.9024 13.3666 20.9046 13.4179 20.9402 13.5384C21.0297 13.841 21.4005 14.1246 21.8549 14.2378C22.0809 14.2941 22.9833 14.2952 23.1897 14.2394C23.6114 14.1255 24.0834 13.7724 24.0975 13.5602C24.1096 13.3772 24.0864 13.235 24.0299 13.1467C23.9442 13.0126 23.7068 12.8019 23.6162 12.7795C23.5724 12.7687 23.5365 12.7474 23.5365 12.7322C23.5365 12.7169 23.4863 12.6936 23.4249 12.6804C23.3636 12.6671 23.2895 12.6448 23.2602 12.6307C23.0786 12.5433 22.5678 12.4861 22.2363 12.5161ZM2.54014 12.7673C2.55658 12.7673 2.94664 12.99 3.07985 13.0754C3.10845 13.0938 3.15526 13.1191 3.18387 13.1316C3.21247 13.1442 3.24368 13.1633 3.25325 13.174C3.26278 13.1848 3.32519 13.2219 3.39193 13.2565C3.60094 13.3648 3.72066 13.4317 3.73862 13.4501C3.74816 13.4598 3.79496 13.4862 3.84264 13.5086C3.89031 13.531 4.00733 13.5949 4.10268 13.6505C4.19803 13.7061 4.33339 13.7824 4.40353 13.8203C4.63126 13.9431 4.6918 13.9777 4.70948 13.9951C4.7255 14.0108 4.80084 14.0524 5.07347 14.196C5.13068 14.2262 5.18529 14.2585 5.19482 14.2679C5.22062 14.2932 5.34339 14.3674 5.40289 14.3935C5.43149 14.4061 5.4627 14.4255 5.47223 14.4366C5.48177 14.4478 5.52858 14.4752 5.57625 14.4976C5.6673 14.5404 5.74451 14.5835 6.43855 14.9786C6.67446 15.113 6.88121 15.2229 6.89796 15.2229C6.91474 15.2229 6.92847 15.2348 6.92847 15.2495C6.92847 15.2641 6.97139 15.2937 7.02382 15.3152C7.14905 15.3666 7.38423 15.5016 7.44224 15.5554C7.46752 15.5789 7.51048 15.598 7.53769 15.598C7.56495 15.598 7.58724 15.6134 7.58724 15.6321C7.58724 15.6509 7.61064 15.6662 7.63925 15.6662C7.66785 15.6662 7.69126 15.6816 7.69126 15.7003C7.69126 15.7191 7.70714 15.7345 7.72652 15.7345C7.75589 15.7345 8.21828 15.9823 8.47138 16.1337C8.50952 16.1565 8.56413 16.1863 8.59274 16.1999C8.62134 16.2134 8.74252 16.2831 8.86207 16.3547C8.98158 16.4262 9.09469 16.4848 9.11344 16.4848C9.13217 16.4848 9.14749 16.4967 9.14749 16.5114C9.14749 16.526 9.19042 16.5558 9.24284 16.5775C9.34315 16.6189 9.60735 16.7645 9.8848 16.9312C9.97567 16.9858 10.0654 17.0305 10.0842 17.0305C10.103 17.0305 10.1183 17.0458 10.1183 17.0646C10.1183 17.0833 10.1354 17.0987 10.1564 17.0987C10.1773 17.0987 10.3332 17.1831 10.5027 17.2863C10.6723 17.3894 10.8268 17.4738 10.8461 17.4738C10.8653 17.4738 10.8811 17.4858 10.8811 17.5005C10.8811 17.5151 10.924 17.5448 10.9765 17.5665C11.0289 17.5882 11.1498 17.6505 11.2452 17.7049C12.0676 18.1745 12.28 18.2924 12.3039 18.2924C12.3191 18.2924 12.3367 18.3039 12.3431 18.318C12.3495 18.332 12.4054 18.3704 12.4674 18.4032C12.7498 18.5528 12.8053 18.585 12.8497 18.6249C12.8757 18.6484 12.9193 18.6675 12.9466 18.6675C12.9738 18.6675 12.9961 18.6829 12.9961 18.7016C12.9961 18.7204 13.0195 18.7358 13.0481 18.7358C13.0767 18.7358 13.1001 18.7477 13.1001 18.7624C13.1001 18.777 13.1431 18.8068 13.1955 18.8284C13.2958 18.8699 13.56 19.0155 13.8374 19.1822C13.9283 19.2368 14.0167 19.2814 14.0339 19.2814C14.0511 19.2814 14.0704 19.2929 14.0767 19.307C14.0877 19.3312 14.3078 19.4564 14.4781 19.5353C14.5208 19.5551 14.5559 19.5828 14.5561 19.5969C14.5562 19.611 14.5746 19.6225 14.5968 19.6225C14.619 19.6225 14.7499 19.6916 14.8876 19.776C15.0252 19.8604 15.154 19.9294 15.1736 19.9294C15.1933 19.9294 15.2145 19.9409 15.2209 19.955C15.2273 19.9691 15.2793 20.0051 15.3365 20.0351C15.3937 20.0651 15.6181 20.1917 15.8351 20.3165C16.0521 20.4413 16.2419 20.5434 16.2569 20.5434C16.2719 20.5434 16.2894 20.5548 16.2958 20.5689C16.3067 20.5931 16.5268 20.7183 16.6971 20.7972C16.7398 20.817 16.775 20.8447 16.7751 20.8588C16.7752 20.8729 16.7977 20.8844 16.8249 20.8844C16.8521 20.8844 16.8958 20.9036 16.9218 20.927C16.9676 20.9682 17.029 21.0037 17.3648 21.183C17.6623 21.3418 17.7289 21.379 17.7462 21.396C17.7558 21.4054 17.8143 21.4399 17.8763 21.4727C18.159 21.6226 18.2141 21.6545 18.2585 21.6944C18.2846 21.7179 18.3282 21.737 18.3554 21.737C18.3827 21.737 18.405 21.7524 18.405 21.7712C18.405 21.7899 18.4284 21.8053 18.457 21.8053C18.4856 21.8053 18.509 21.8172 18.509 21.8319C18.509 21.8465 18.5519 21.8765 18.6043 21.8984C18.7231 21.9482 18.8657 22.0284 19.4023 22.3474L19.8265 22.5996V23.3109C19.8265 23.7021 19.8195 24.0221 19.8108 24.0221C19.7852 24.0221 19.6027 23.9398 19.5838 23.9198C19.5743 23.9097 19.5275 23.8825 19.4798 23.8594C19.4321 23.8363 19.2995 23.763 19.1851 23.6965C19.0707 23.63 18.9342 23.5576 18.8817 23.5356C18.8293 23.5136 18.7864 23.4853 18.7864 23.4726C18.7864 23.46 18.7474 23.4401 18.6997 23.4283C18.652 23.4165 18.613 23.3919 18.613 23.3735C18.613 23.3551 18.5909 23.34 18.5639 23.34C18.5369 23.34 18.5096 23.3285 18.5032 23.3144C18.4923 23.2903 18.2722 23.1651 18.1019 23.0861C18.0591 23.0663 18.024 23.0386 18.0239 23.0245C18.0237 23.0105 18.0013 22.999 17.974 22.999C17.9468 22.999 17.9032 22.9798 17.8771 22.9563C17.8511 22.9329 17.7758 22.8852 17.7099 22.8505C17.6441 22.8157 17.5044 22.7404 17.3995 22.6831C17.2946 22.6258 17.1776 22.5621 17.1394 22.5416C17.1013 22.5212 17.0623 22.4967 17.0527 22.4874C17.0432 22.478 16.9847 22.4434 16.9227 22.4106C16.6399 22.2608 16.5848 22.2289 16.5404 22.1889C16.5144 22.1655 16.4721 22.1463 16.4464 22.1463C16.4208 22.1463 16.3946 22.1348 16.3882 22.1207C16.3819 22.1066 16.326 22.0683 16.264 22.0355C16.202 22.0027 16.1006 21.9489 16.0386 21.9161C15.9767 21.8833 15.9181 21.8476 15.9086 21.8369C15.899 21.8261 15.8678 21.8074 15.8392 21.7953C15.8106 21.7833 15.7092 21.727 15.6139 21.6704C15.5185 21.6138 15.4171 21.5568 15.3885 21.5439C15.3599 21.531 15.2412 21.4617 15.1247 21.39C15.0082 21.3183 14.8951 21.2596 14.8733 21.2596C14.8516 21.2596 14.8337 21.2442 14.8337 21.2255C14.8337 21.2067 14.8164 21.1914 14.7951 21.1914C14.7739 21.1914 14.6438 21.1223 14.5062 21.0379C14.3685 20.9535 14.2376 20.8844 14.2154 20.8844C14.1932 20.8844 14.175 20.8724 14.175 20.8578C14.175 20.8431 14.1321 20.8129 14.0796 20.7905C14.0272 20.7681 13.8907 20.695 13.7762 20.628C13.6618 20.561 13.5253 20.4881 13.4729 20.4661C13.4204 20.4441 13.3775 20.4158 13.3775 20.4031C13.3775 20.3905 13.3385 20.3706 13.2908 20.3588C13.2431 20.347 13.2041 20.3223 13.2041 20.304C13.2041 20.2855 13.1821 20.2705 13.155 20.2705C13.128 20.2705 13.1007 20.259 13.0943 20.2449C13.088 20.2308 13.0321 20.1925 12.9701 20.1597C12.9081 20.1269 12.8067 20.0731 12.7447 20.0403C12.6827 20.0075 12.6269 19.9691 12.6205 19.955C12.6141 19.9409 12.5879 19.9294 12.5623 19.9294C12.5366 19.9294 12.495 19.9101 12.4698 19.8864C12.4446 19.8627 12.385 19.8249 12.3373 19.8024C12.2298 19.7515 11.8815 19.5568 11.8346 19.5213C11.8019 19.4966 11.5664 19.3665 11.2988 19.2253C11.2329 19.1905 11.1576 19.1429 11.1316 19.1194C11.1055 19.096 11.0632 19.0768 11.0375 19.0768C11.0119 19.0768 10.9857 19.0653 10.9793 19.0512C10.973 19.0371 10.9171 18.9988 10.8551 18.966C10.7931 18.9332 10.6917 18.8794 10.6297 18.8466C10.5677 18.8138 10.5118 18.7754 10.5055 18.7613C10.4991 18.7472 10.4718 18.7358 10.4448 18.7358C10.4178 18.7358 10.3957 18.7207 10.3957 18.7023C10.3957 18.6839 10.3567 18.6592 10.309 18.6475C10.2613 18.6357 10.2223 18.6157 10.2223 18.6031C10.2223 18.5905 10.1794 18.5619 10.127 18.5395C10.0746 18.5171 9.93802 18.444 9.8236 18.377C9.70918 18.31 9.57264 18.2372 9.52022 18.2151C9.46779 18.1931 9.42487 18.1631 9.42487 18.1485C9.42487 18.1338 9.4075 18.1218 9.38624 18.1218C9.36499 18.1218 9.23497 18.0528 9.09729 17.9684C8.9596 17.884 8.82875 17.8149 8.80652 17.8149C8.7843 17.8149 8.7661 17.7995 8.7661 17.7808C8.7661 17.762 8.74897 17.7467 8.72803 17.7467C8.70708 17.7467 8.55123 17.6623 8.38169 17.5591C8.21214 17.4559 8.04984 17.3715 8.02102 17.3715C7.99221 17.3715 7.96864 17.3578 7.96864 17.3411C7.96864 17.3244 7.92963 17.3011 7.88195 17.2893C7.83428 17.2775 7.79527 17.2528 7.79527 17.2345C7.79527 17.216 7.77319 17.201 7.74614 17.201C7.71913 17.201 7.69185 17.1895 7.68547 17.1754C7.67912 17.1613 7.62323 17.123 7.56124 17.0902C7.27883 16.9406 7.22332 16.9084 7.17894 16.8685C7.15287 16.845 7.11057 16.8258 7.08491 16.8258C7.05925 16.8258 7.03307 16.8143 7.02669 16.8003C7.02035 16.7862 6.96446 16.7478 6.90246 16.715C6.84047 16.6822 6.73909 16.6284 6.67713 16.5956C6.61517 16.5628 6.55664 16.5283 6.54711 16.5189C6.53754 16.5095 6.49853 16.4851 6.46039 16.4646C6.42225 16.4442 6.30523 16.3805 6.20035 16.3232C6.09547 16.2659 5.95577 16.1905 5.8899 16.1558C5.82402 16.121 5.74878 16.0734 5.72271 16.0499C5.69663 16.0265 5.65302 16.0073 5.6258 16.0073C5.59854 16.0073 5.57611 15.9958 5.57597 15.9817C5.57583 15.9676 5.54071 15.9399 5.49796 15.9201C5.33084 15.8427 5.10908 15.7145 5.04164 15.6564C5.00274 15.6229 4.93544 15.5866 4.89217 15.576C4.84886 15.5653 4.81346 15.5462 4.81346 15.5336C4.81346 15.521 4.77054 15.4924 4.71811 15.47C4.66569 15.4476 4.52915 15.3745 4.41473 15.3075C4.30031 15.2405 4.16377 15.1677 4.11135 15.1456C4.05892 15.1236 4.016 15.0936 4.016 15.079C4.016 15.0643 3.99371 15.0523 3.96645 15.0523C3.93924 15.0523 3.89628 15.0332 3.871 15.0097C3.81299 14.9559 3.57781 14.8209 3.45258 14.7695C3.40015 14.748 3.35723 14.7184 3.35723 14.7038C3.35723 14.6891 3.3401 14.6772 3.31916 14.6772C3.29821 14.6772 3.14236 14.5928 2.97282 14.4896C2.80327 14.3864 2.65581 14.302 2.64516 14.302C2.63448 14.302 2.54042 14.2483 2.43609 14.1826C2.33173 14.117 2.23163 14.0633 2.2136 14.0633C2.13049 14.0633 2.10903 13.8968 2.10903 13.2527C2.10903 12.8794 2.11828 12.5649 2.12962 12.5537C2.14096 12.5426 2.23381 12.5861 2.33599 12.6504C2.43817 12.7147 2.53005 12.7673 2.54014 12.7673ZM31.1292 14.7086C31.1296 15.2776 31.1216 15.3798 31.0723 15.4333C31.0408 15.4676 30.9939 15.4957 30.9683 15.4957C30.9426 15.4957 30.9217 15.5111 30.9217 15.5298C30.9217 15.5486 30.9045 15.5639 30.8836 15.5639C30.8626 15.5639 30.7068 15.6483 30.5372 15.7515C30.3677 15.8547 30.2132 15.9391 30.1939 15.9391C30.1746 15.9391 30.1589 15.9544 30.1589 15.9732C30.1589 15.992 30.1407 16.0073 30.1184 16.0073C30.0962 16.0073 29.9654 16.0764 29.8277 16.1608C29.69 16.2452 29.56 16.3142 29.5387 16.3142C29.5175 16.3142 29.5 16.3257 29.4998 16.3398C29.4997 16.3539 29.4646 16.3817 29.4218 16.4017C29.3791 16.4217 29.1511 16.5483 28.9152 16.6831C28.6793 16.8179 28.4801 16.9282 28.4727 16.9282C28.4653 16.9282 28.3204 17.0126 28.1509 17.1157C27.9813 17.2189 27.8255 17.3033 27.8046 17.3033C27.7836 17.3033 27.7665 17.3169 27.7665 17.3334C27.7665 17.35 27.7392 17.3726 27.7058 17.3836C27.6469 17.4031 27.5242 17.4734 27.4891 17.5079C27.4795 17.5173 27.4171 17.5533 27.3504 17.5879C27.114 17.7104 27.0218 17.7642 26.9759 17.8064C26.9503 17.8298 26.9084 17.849 26.8828 17.849C26.8571 17.849 26.8309 17.8605 26.8245 17.8746C26.8182 17.8887 26.7506 17.9307 26.6743 17.968C26.598 18.0054 26.5278 18.0437 26.5182 18.0533C26.5087 18.0629 26.4502 18.0976 26.3882 18.1304C26.1054 18.2802 26.0503 18.3122 26.006 18.3521C25.9799 18.3755 25.9363 18.3947 25.9091 18.3947C25.8818 18.3947 25.8595 18.41 25.8595 18.4288C25.8595 18.4476 25.8437 18.4629 25.8245 18.4629C25.8052 18.4629 25.6507 18.5473 25.4811 18.6505C25.3116 18.7537 25.1557 18.8381 25.1348 18.8381C25.1138 18.8381 25.0967 18.8516 25.0967 18.8682C25.0967 18.8848 25.0694 18.9073 25.036 18.9184C25.0027 18.9294 24.952 18.9538 24.9234 18.9725C24.8146 19.0439 24.4013 19.2814 24.3859 19.2814C24.3771 19.2814 24.2678 19.3428 24.1432 19.4179C24.0186 19.4929 23.9026 19.5543 23.8855 19.5543C23.8683 19.5543 23.8491 19.5658 23.8427 19.5799C23.8364 19.594 23.7805 19.6323 23.7185 19.6651C23.6565 19.6979 23.5551 19.7517 23.4931 19.7845C23.4311 19.8173 23.3752 19.8557 23.3689 19.8698C23.3625 19.8838 23.3363 19.8953 23.3107 19.8953C23.285 19.8953 23.2427 19.9145 23.2167 19.938C23.1906 19.9614 23.1193 20.0075 23.0581 20.0403C22.997 20.0731 22.8973 20.1269 22.8364 20.1597C22.7756 20.1925 22.6939 20.2468 22.6551 20.2804C22.6162 20.3139 22.5489 20.3501 22.5057 20.3608C22.4624 20.3715 22.427 20.3921 22.427 20.4067C22.427 20.4212 22.3996 20.4417 22.3663 20.4522C22.3026 20.4723 22.0575 20.607 21.729 20.8024C21.4006 20.9977 21.4189 21.0434 21.4295 20.0573L21.4388 19.1962L21.5602 19.1852C21.6269 19.1792 21.6963 19.16 21.7144 19.1426C21.7325 19.1252 21.7827 19.1109 21.8259 19.1109C22.0072 19.1109 22.6705 18.8252 22.8355 18.6761C22.8614 18.6526 22.9049 18.6334 22.9322 18.6334C22.9594 18.6334 22.9817 18.6181 22.9817 18.5993C22.9817 18.5806 22.997 18.5652 23.0158 18.5652C23.0345 18.5652 23.1476 18.5067 23.2671 18.4351C23.3867 18.3636 23.5079 18.2946 23.5365 18.2818C23.5651 18.2691 23.6191 18.2394 23.6565 18.2158C23.768 18.1456 23.9569 18.0373 24.1779 17.917C24.2923 17.8547 24.4327 17.7756 24.49 17.7414C24.5472 17.7071 24.6174 17.6685 24.646 17.6557C24.6746 17.6428 24.7058 17.6235 24.7154 17.6128C24.7249 17.602 24.7795 17.5686 24.8367 17.5384C25.1225 17.3878 25.1847 17.3528 25.2007 17.3335C25.2103 17.3219 25.2504 17.3026 25.29 17.2905C25.3295 17.2783 25.3929 17.2418 25.4307 17.2091C25.4685 17.1765 25.5532 17.1214 25.6189 17.0866C25.9226 16.9257 26.121 16.8138 26.1369 16.7945C26.1464 16.7828 26.1932 16.7547 26.2409 16.7319C26.2886 16.7092 26.4212 16.6362 26.5356 16.5697C26.65 16.5033 26.7865 16.4306 26.839 16.4082C26.8915 16.3858 26.9344 16.3555 26.9344 16.3409C26.9344 16.3262 26.9566 16.3142 26.9839 16.3142C27.0111 16.3142 27.0541 16.2951 27.0793 16.2716C27.1374 16.2178 27.3725 16.0828 27.4978 16.0314C27.5502 16.0099 27.5931 15.9804 27.5931 15.9657C27.5931 15.9511 27.6089 15.9391 27.6282 15.9391C27.6584 15.9391 27.7821 15.8693 28.3732 15.5185C28.4305 15.4846 28.5202 15.4392 28.5726 15.4176C28.6251 15.3961 28.668 15.3665 28.668 15.3518C28.668 15.3372 28.6903 15.3252 28.7175 15.3252C28.7447 15.3252 28.7877 15.306 28.813 15.2826C28.871 15.2287 29.1061 15.0937 29.2314 15.0424C29.2838 15.0209 29.3267 14.9913 29.3267 14.9767C29.3267 14.962 29.3418 14.95 29.3602 14.95C29.3786 14.95 29.5352 14.8656 29.7081 14.7624C29.8811 14.6593 30.0279 14.5749 30.0344 14.5749C30.0408 14.5749 30.2236 14.4731 30.4405 14.3487C30.6575 14.2243 30.8818 14.0977 30.939 14.0673C30.9962 14.037 31.0488 13.9989 31.0559 13.9827C31.1025 13.8761 31.1287 14.1359 31.1292 14.7086ZM2.48421 15.9988C2.50942 16.0222 2.55103 16.0414 2.57669 16.0414C2.60234 16.0414 2.62852 16.0529 2.6349 16.067C2.64125 16.0811 2.69717 16.1194 2.75913 16.1522C2.82109 16.1851 2.92251 16.2388 2.98447 16.2716C3.04642 16.3044 3.10495 16.3391 3.11449 16.3487C3.12406 16.3582 3.19427 16.3966 3.27055 16.434C3.34683 16.4713 3.41444 16.5133 3.42078 16.5274C3.42716 16.5415 3.45334 16.553 3.479 16.553C3.50465 16.553 3.54629 16.5722 3.57157 16.5956C3.62958 16.6494 3.86476 16.7844 3.99 16.8358C4.04242 16.8573 4.08534 16.8869 4.08534 16.9015C4.08534 16.9162 4.10112 16.9282 4.1204 16.9282C4.13968 16.9282 4.29417 17.0126 4.46372 17.1157C4.63327 17.2189 4.78912 17.3033 4.81006 17.3033C4.83101 17.3033 4.84813 17.3169 4.84813 17.3334C4.84813 17.35 4.87542 17.3722 4.90881 17.3827C4.9725 17.4028 5.21757 17.5375 5.54612 17.7329C5.6535 17.7968 5.7588 17.849 5.78016 17.849C5.80148 17.849 5.81896 17.8643 5.81896 17.8831C5.81896 17.9019 5.83428 17.9172 5.853 17.9172C5.87176 17.9172 5.98486 17.9758 6.10438 18.0473C6.22393 18.1189 6.34511 18.1878 6.37371 18.2006C6.40232 18.2133 6.44912 18.2393 6.47773 18.2583C6.59877 18.3386 7.32096 18.7358 7.34603 18.7358C7.36111 18.7358 7.37862 18.7488 7.385 18.7647C7.3955 18.7911 7.57583 18.8963 7.89929 19.0648C7.96603 19.0995 8.02584 19.1395 8.03219 19.1535C8.03857 19.1676 8.0575 19.1791 8.07432 19.1791C8.09113 19.1791 8.24639 19.2635 8.41937 19.3667C8.59235 19.4699 8.73923 19.5543 8.74581 19.5543C8.75237 19.5543 8.95076 19.6645 9.18667 19.7993C9.42255 19.9341 9.65055 20.0608 9.6933 20.0807C9.73605 20.1007 9.77118 20.1285 9.77131 20.1426C9.77145 20.1567 9.78872 20.1682 9.80966 20.1682C9.8306 20.1682 9.98646 20.2526 10.156 20.3558C10.3256 20.4589 10.4788 20.5434 10.4964 20.5434C10.5141 20.5434 10.5338 20.5548 10.5402 20.5689C10.5517 20.5944 10.6067 20.6253 11.0025 20.8287C11.1169 20.8875 11.2157 20.9471 11.222 20.9611C11.2284 20.9752 11.2473 20.9867 11.2642 20.9867C11.281 20.9867 11.4362 21.0711 11.6092 21.1743C11.7822 21.2775 11.9387 21.3619 11.9572 21.3619C11.9756 21.3619 11.9906 21.3772 11.9906 21.396C11.9906 21.4147 12.0088 21.4301 12.031 21.4301C12.0533 21.4301 12.1841 21.4992 12.3218 21.5836C12.4595 21.668 12.5895 21.737 12.6108 21.737C12.632 21.737 12.6494 21.7506 12.6494 21.7672C12.6494 21.7837 12.6767 21.8059 12.7101 21.8164C12.7774 21.8377 13.022 21.973 13.4047 22.2007C13.5437 22.2833 13.6711 22.3509 13.6879 22.3509C13.7047 22.3509 13.7236 22.3624 13.73 22.3765C13.7409 22.4007 13.961 22.5259 14.1313 22.6048C14.1741 22.6246 14.2092 22.6523 14.2094 22.6664C14.2095 22.6805 14.2254 22.692 14.2446 22.692C14.2638 22.692 14.4316 22.7788 14.6173 22.8849C14.8031 22.991 15.0019 23.1023 15.0591 23.1322C15.1163 23.1621 15.1709 23.196 15.1804 23.2075C15.19 23.2191 15.2301 23.2384 15.2697 23.2506C15.3092 23.2627 15.3726 23.2993 15.4104 23.3319C15.475 23.3875 15.5327 23.4216 15.8132 23.5702C15.8752 23.603 15.9311 23.6414 15.9375 23.6555C15.9438 23.6696 15.9653 23.6811 15.9851 23.6811C16.0049 23.6811 16.1368 23.7501 16.2781 23.8345C16.4195 23.919 16.5427 23.988 16.5519 23.988C16.5612 23.988 16.6338 24.0284 16.7133 24.0778C16.8969 24.1918 17.1831 24.3535 17.2955 24.4066C17.3431 24.4292 17.4028 24.467 17.4279 24.4907C17.4532 24.5143 17.4948 24.5337 17.5204 24.5337C17.5461 24.5337 17.5723 24.5452 17.5786 24.5593C17.585 24.5734 17.6409 24.6117 17.7029 24.6446C17.7649 24.6774 17.8662 24.7311 17.9282 24.7639C17.9902 24.7967 18.0461 24.8351 18.0525 24.8492C18.0588 24.8633 18.0861 24.8748 18.1131 24.8748C18.1402 24.8748 18.1623 24.8898 18.1623 24.9082C18.1623 24.9266 18.2013 24.9513 18.249 24.9631C18.2966 24.9748 18.3356 24.9948 18.3356 25.0074C18.3356 25.02 18.3785 25.0486 18.431 25.071C18.4834 25.0934 18.6199 25.1665 18.7344 25.2335C18.8488 25.3005 18.9853 25.3734 19.0377 25.3954C19.0902 25.4174 19.1331 25.4474 19.1331 25.462C19.1331 25.4767 19.1554 25.4887 19.1826 25.4887C19.2099 25.4887 19.2528 25.5087 19.278 25.5332C19.3032 25.5577 19.3472 25.5883 19.3758 25.6012C19.4044 25.6141 19.4584 25.644 19.4958 25.6675C19.5332 25.6911 19.623 25.7451 19.6952 25.7875L19.8265 25.8647V26.5975C19.8265 27.0006 19.8169 27.3304 19.8051 27.3304C19.7933 27.3304 19.6958 27.2782 19.5884 27.2144C19.4189 27.1137 19.2454 27.0169 18.9771 26.873C18.9389 26.8526 18.8999 26.8282 18.8904 26.8188C18.8808 26.8094 18.8223 26.7749 18.7603 26.7421C18.6984 26.7092 18.597 26.6555 18.535 26.6227C18.4731 26.5899 18.4145 26.5535 18.405 26.542C18.3954 26.5305 18.3525 26.5103 18.3096 26.4971C18.2667 26.4839 18.2316 26.4588 18.2316 26.4413C18.2316 26.4238 18.2082 26.4095 18.1796 26.4095C18.151 26.4095 18.1276 26.3975 18.1276 26.3829C18.1276 26.3683 18.0847 26.3385 18.0323 26.3168C17.9798 26.2951 17.8511 26.2287 17.7462 26.1692C17.6413 26.1097 17.4697 26.0141 17.3648 25.9567C17.2599 25.8994 17.0763 25.7936 16.9568 25.7217C16.8373 25.6498 16.7242 25.591 16.7054 25.591C16.6867 25.591 16.6714 25.579 16.6714 25.5643C16.6714 25.5497 16.6285 25.5201 16.576 25.4986C16.4508 25.4473 16.2156 25.3123 16.1576 25.2585C16.1323 25.235 16.0907 25.2158 16.065 25.2158C16.0394 25.2158 16.0132 25.2043 16.0068 25.1902C16.0005 25.1762 15.8938 25.1119 15.7699 25.0474C15.6459 24.9828 15.4665 24.8819 15.3712 24.8229C15.2758 24.764 15.1744 24.7056 15.1458 24.6932C15.0868 24.6675 14.9639 24.5935 14.9377 24.5678C14.9176 24.5482 14.6456 24.4013 14.5306 24.348C14.4879 24.3282 14.4528 24.3005 14.4526 24.2864C14.4525 24.2724 14.4349 24.2609 14.4135 24.2609C14.3922 24.2609 14.2869 24.2087 14.1795 24.1449C14.01 24.0442 13.8365 23.9474 13.5682 23.8035C13.5301 23.783 13.4911 23.7587 13.4815 23.7493C13.472 23.7399 13.4134 23.7054 13.3515 23.6725C13.2895 23.6397 13.1881 23.586 13.1262 23.5532C13.0642 23.5204 13.0057 23.484 12.9961 23.4725C12.9866 23.461 12.9437 23.4408 12.9008 23.4276C12.8578 23.4144 12.8227 23.3893 12.8227 23.3718C12.8227 23.3543 12.7993 23.34 12.7707 23.34C12.7421 23.34 12.7187 23.328 12.7187 23.3134C12.7187 23.2987 12.6758 23.269 12.6234 23.2473C12.571 23.2256 12.45 23.1633 12.3547 23.1088C12.2593 23.0543 12.0253 22.9205 11.8346 22.8114C11.6439 22.7023 11.4411 22.5886 11.3839 22.5588C11.3267 22.5289 11.2721 22.4967 11.2625 22.4874C11.2529 22.478 11.1905 22.442 11.1238 22.4074C10.8874 22.2849 10.7952 22.2311 10.7492 22.1889C10.7237 22.1655 10.6818 22.1463 10.6561 22.1463C10.6305 22.1463 10.6043 22.1348 10.5979 22.1207C10.5916 22.1066 10.5357 22.0683 10.4737 22.0355C10.4117 22.0027 10.3103 21.9489 10.2484 21.9161C10.1864 21.8833 10.1279 21.8476 10.1183 21.8369C10.1088 21.8261 10.0776 21.8068 10.049 21.7938C10.0204 21.7808 9.91895 21.7239 9.8236 21.6673C9.72825 21.6107 9.62683 21.5544 9.59823 21.5423C9.56963 21.5302 9.53842 21.5115 9.52885 21.5008C9.51932 21.4901 9.46471 21.4566 9.4075 21.4264C9.10925 21.2693 9.05987 21.2404 9.04926 21.2169C9.04288 21.2029 9.01671 21.1914 8.99105 21.1914C8.96539 21.1914 8.92309 21.1722 8.89702 21.1487C8.85264 21.1088 8.79754 21.0769 8.51476 20.927C8.4528 20.8942 8.39427 20.8594 8.38474 20.8496C8.37517 20.8398 8.32836 20.8133 8.28069 20.7905C8.23301 20.7678 8.10039 20.6948 7.98597 20.6283C7.87155 20.5618 7.73501 20.4892 7.68259 20.4667C7.63016 20.4444 7.58724 20.4158 7.58724 20.4031C7.58724 20.3905 7.54823 20.3706 7.50056 20.3588C7.45289 20.347 7.41388 20.3223 7.41388 20.304C7.41388 20.2855 7.39048 20.2705 7.36187 20.2705C7.33327 20.2705 7.30986 20.2585 7.30986 20.2439C7.30986 20.2292 7.26694 20.1997 7.21451 20.1781C7.08928 20.1268 6.8541 19.9918 6.79609 19.938C6.77081 19.9145 6.72917 19.8953 6.70351 19.8953C6.67786 19.8953 6.65168 19.8838 6.6453 19.8698C6.63896 19.8557 6.53234 19.7917 6.40838 19.7275C6.28443 19.6633 6.12868 19.5751 6.06229 19.5314C5.99589 19.4877 5.92176 19.452 5.89759 19.452C5.87343 19.452 5.85363 19.4366 5.85363 19.4179C5.85363 19.3991 5.83626 19.3838 5.815 19.3838C5.79375 19.3838 5.66373 19.3147 5.52605 19.2303C5.38836 19.1459 5.25751 19.0768 5.23528 19.0768C5.21306 19.0768 5.19472 19.0653 5.19458 19.0512C5.19444 19.0371 5.15932 19.0094 5.11657 18.9896C4.98727 18.9297 4.72813 18.7882 4.70955 18.7674C4.69994 18.7566 4.6687 18.7373 4.6401 18.7243C4.6115 18.7113 4.51008 18.6544 4.41473 18.5978C4.31938 18.5411 4.21797 18.4849 4.18936 18.4728C4.16076 18.4607 4.12955 18.442 4.11998 18.4313C4.11045 18.4205 4.05192 18.3849 3.98996 18.3521C3.928 18.3193 3.82659 18.2655 3.76463 18.2327C3.70267 18.1999 3.64674 18.1615 3.6404 18.1474C3.63402 18.1333 3.60784 18.1218 3.58218 18.1218C3.55652 18.1218 3.51422 18.1027 3.48815 18.0792C3.44377 18.0393 3.38826 18.0071 3.10585 17.8575C3.04389 17.8247 2.98797 17.7864 2.98162 17.7723C2.97524 17.7582 2.95808 17.7467 2.94345 17.7467C2.90583 17.7467 2.243 17.373 2.1697 17.3104C2.11558 17.2642 2.10903 17.1826 2.10903 16.5534C2.10903 16.1655 2.11912 15.8382 2.13149 15.8261C2.15504 15.8029 2.40551 15.9255 2.48421 15.9988ZM31.1297 18.0045C31.1297 18.6562 31.1252 18.7061 31.0603 18.7699C31.0222 18.8074 30.9676 18.8381 30.939 18.8381C30.9104 18.8381 30.887 18.8516 30.887 18.8682C30.887 18.8848 30.8597 18.9073 30.8263 18.9184C30.7674 18.9378 30.6447 19.0082 30.6096 19.0427C30.6 19.0521 30.5376 19.0881 30.4709 19.1226C30.2345 19.2452 30.1423 19.299 30.0964 19.3411C30.0708 19.3646 30.0276 19.3838 30.0004 19.3838C29.9731 19.3838 29.9508 19.3991 29.9508 19.4179C29.9508 19.4366 29.9215 19.452 29.8857 19.452C29.8499 19.452 29.8012 19.475 29.7775 19.5031C29.7537 19.5313 29.7141 19.5543 29.6894 19.5543C29.6648 19.5543 29.6394 19.5658 29.633 19.5799C29.6266 19.594 29.5668 19.6345 29.5001 19.67C29.4334 19.7055 29.3327 19.7593 29.2763 19.7894C29.22 19.8195 29.1525 19.8634 29.1265 19.8868C29.1004 19.9103 29.0568 19.9294 29.0296 19.9294C29.0023 19.9294 28.98 19.9448 28.98 19.9636C28.98 19.9823 28.9642 19.9977 28.945 19.9977C28.9257 19.9977 28.7712 20.0821 28.6016 20.1852C28.4321 20.2884 28.2762 20.3728 28.2553 20.3728C28.2344 20.3728 28.2171 20.3843 28.2169 20.3984C28.2168 20.4125 28.1817 20.4403 28.1389 20.4603C28.0962 20.4803 27.8682 20.6069 27.6323 20.7417C27.3964 20.8765 27.198 20.9867 27.1914 20.9867C27.1849 20.9867 27.038 21.0711 26.865 21.1743C26.692 21.2775 26.5355 21.3619 26.5171 21.3619C26.4987 21.3619 26.4836 21.3772 26.4836 21.396C26.4836 21.4147 26.4613 21.4301 26.4341 21.4301C26.4068 21.4301 26.3632 21.4493 26.3372 21.4727C26.2928 21.5127 26.2373 21.5448 25.9549 21.6944C25.8929 21.7272 25.837 21.7656 25.8306 21.7797C25.8242 21.7938 25.797 21.8053 25.77 21.8053C25.7429 21.8053 25.7208 21.8203 25.7208 21.8387C25.7208 21.8571 25.6818 21.8818 25.6341 21.8936C25.5865 21.9053 25.5475 21.9253 25.5475 21.9379C25.5475 21.9505 25.5046 21.9789 25.4521 22.0009C25.3997 22.0229 25.2631 22.0953 25.1487 22.1618C25.0343 22.2282 24.9017 22.3016 24.854 22.3249C24.8063 22.3482 24.7467 22.3866 24.7215 22.4102C24.6963 22.4339 24.6534 22.4533 24.6262 22.4533C24.5989 22.4533 24.5766 22.4686 24.5766 22.4874C24.5766 22.5061 24.5616 22.5215 24.5432 22.5215C24.5248 22.5215 24.3682 22.6059 24.1952 22.7091C24.0223 22.8122 23.8657 22.8966 23.8473 22.8966C23.8289 22.8966 23.8138 22.912 23.8138 22.9307C23.8138 22.9495 23.7963 22.9648 23.7749 22.9648C23.7535 22.9648 23.6203 23.0339 23.4789 23.1183C23.3376 23.2027 23.216 23.2718 23.2086 23.2718C23.2013 23.2718 23.0695 23.3485 22.9157 23.4423C22.762 23.5361 22.6216 23.6129 22.6038 23.6129C22.586 23.6129 22.5662 23.6244 22.5599 23.6384C22.5535 23.6525 22.4976 23.6909 22.4356 23.7237C22.3736 23.7565 22.2723 23.8103 22.2103 23.8431C22.1483 23.8759 22.0898 23.9122 22.0803 23.9237C22.0707 23.9353 22.0278 23.9555 21.9849 23.9687C21.942 23.9818 21.9069 24.0069 21.9069 24.0244C21.9069 24.0419 21.8874 24.0563 21.8635 24.0564C21.8397 24.0565 21.75 24.1024 21.6642 24.1585C21.5784 24.2147 21.4887 24.2606 21.4648 24.2607C21.4314 24.2608 21.4215 24.0888 21.4215 23.5138V22.7668L21.6555 22.6487C22.0384 22.4554 22.1316 22.4035 22.1438 22.3765C22.1502 22.3624 22.1691 22.3509 22.1859 22.3509C22.2027 22.3509 22.358 22.2665 22.531 22.1634C22.704 22.0602 22.8605 21.9758 22.8789 21.9758C22.8973 21.9758 22.9124 21.9621 22.9124 21.9454C22.9124 21.9287 22.9478 21.9062 22.9911 21.8955C23.0343 21.8849 23.1007 21.8485 23.1384 21.8149C23.1762 21.7812 23.2461 21.7351 23.2938 21.7124C23.3414 21.6898 23.4663 21.623 23.5711 21.564C23.676 21.505 23.8477 21.41 23.9525 21.3528C24.0574 21.2957 24.2385 21.1899 24.355 21.1178C24.4715 21.0457 24.5846 20.9867 24.6064 20.9867C24.6282 20.9867 24.646 20.9714 24.646 20.9526C24.646 20.9339 24.6683 20.9185 24.6955 20.9185C24.7227 20.9185 24.7657 20.8993 24.791 20.8759C24.849 20.8221 25.0842 20.6871 25.2094 20.6357C25.2619 20.6142 25.3048 20.5846 25.3048 20.57C25.3048 20.5553 25.3205 20.5434 25.3398 20.5434C25.3591 20.5434 25.5136 20.4589 25.6831 20.3558C25.8527 20.2526 26.0005 20.1682 26.0115 20.1682C26.0225 20.1682 26.1137 20.1168 26.2142 20.0539C26.388 19.9453 26.633 19.8075 26.8996 19.6686C26.9664 19.6339 27.0288 19.5966 27.0383 19.5859C27.0479 19.5752 27.0791 19.5561 27.1077 19.5435C27.1672 19.5173 27.29 19.4432 27.3158 19.4179C27.3253 19.4085 27.3877 19.3725 27.4545 19.3379C27.6909 19.2154 27.7831 19.1616 27.829 19.1194C27.8546 19.096 27.8978 19.0768 27.925 19.0768C27.9522 19.0768 27.9745 19.0648 27.9745 19.0502C27.9745 19.0355 28.0174 19.0059 28.0699 18.9843C28.1223 18.9628 28.212 18.9174 28.2692 18.8835C28.8604 18.5327 28.984 18.4629 29.0143 18.4629C29.0336 18.4629 29.0494 18.4476 29.0494 18.4288C29.0494 18.41 29.0676 18.3947 29.0898 18.3947C29.112 18.3947 29.2429 18.3256 29.3805 18.2412C29.5182 18.1568 29.6483 18.0877 29.6695 18.0877C29.6908 18.0877 29.7081 18.0724 29.7081 18.0536C29.7081 18.0349 29.7218 18.0195 29.7384 18.0195C29.7551 18.0195 29.9462 17.9184 30.1632 17.7948C30.3801 17.6711 30.6434 17.5231 30.7483 17.4658C30.8532 17.4085 30.9688 17.3414 31.0053 17.3168C31.0418 17.2922 31.0847 17.28 31.1007 17.2897C31.1166 17.2994 31.1297 17.621 31.1297 18.0045ZM2.25351 19.1365C2.25985 19.1506 2.31578 19.1889 2.37774 19.2218C2.4397 19.2546 2.54111 19.3083 2.60307 19.3411C2.66503 19.3739 2.72356 19.4096 2.73309 19.4204C2.74266 19.4311 2.77387 19.4509 2.80247 19.4643C2.83108 19.4778 2.88568 19.5074 2.92382 19.5302C3.17693 19.6816 3.63932 19.9294 3.66869 19.9294C3.68807 19.9294 3.70395 19.9448 3.70395 19.9636C3.70395 19.9823 3.71973 19.9977 3.739 19.9977C3.75828 19.9977 3.91278 20.0821 4.08233 20.1852C4.25187 20.2884 4.40773 20.3728 4.42867 20.3728C4.44961 20.3728 4.46674 20.3864 4.46674 20.4029C4.46674 20.4195 4.49403 20.442 4.52742 20.4528C4.5608 20.4636 4.69731 20.5352 4.8308 20.6118C4.96429 20.6884 5.11643 20.7691 5.16885 20.7911C5.22128 20.8132 5.2642 20.8431 5.2642 20.8578C5.2642 20.8724 5.28649 20.8844 5.31375 20.8844C5.34096 20.8844 5.38392 20.9036 5.4092 20.927C5.46721 20.9809 5.70239 21.1158 5.82762 21.1672C5.88005 21.1887 5.92297 21.2183 5.92297 21.2329C5.92297 21.2476 5.93802 21.2596 5.95643 21.2596C5.97484 21.2596 6.13139 21.344 6.30437 21.4471C6.47735 21.5503 6.62685 21.6347 6.63663 21.6347C6.64641 21.6347 6.73978 21.6884 6.84411 21.7541C6.94847 21.8198 7.04077 21.8735 7.04927 21.8735C7.05776 21.8735 7.18036 21.9425 7.32169 22.0269C7.46304 22.1114 7.59622 22.1804 7.61765 22.1804C7.63904 22.1804 7.65672 22.1919 7.65686 22.206C7.657 22.2201 7.69212 22.2478 7.73487 22.2676C7.86417 22.3275 8.12331 22.469 8.14189 22.4899C8.1515 22.5006 8.18274 22.5197 8.21134 22.5323C8.23995 22.5448 8.28675 22.5707 8.31536 22.5897C8.39562 22.643 9.15453 23.0672 9.16958 23.0672C9.17689 23.0672 9.32165 23.1516 9.4912 23.2547C9.66074 23.3579 9.8166 23.4423 9.83754 23.4423C9.85848 23.4423 9.87561 23.4577 9.87561 23.4764C9.87561 23.4952 9.89093 23.5105 9.90966 23.5105C9.92841 23.5105 10.0415 23.5694 10.161 23.6413C10.2806 23.7132 10.4642 23.8189 10.5691 23.8763C10.6739 23.9336 10.8456 24.0292 10.9504 24.0887C11.0553 24.1482 11.1841 24.2147 11.2365 24.2364C11.2889 24.2581 11.3318 24.2878 11.3318 24.3024C11.3318 24.3171 11.3469 24.3291 11.3653 24.3291C11.3837 24.3291 11.5403 24.4135 11.7132 24.5167C11.8862 24.6198 12.0428 24.7042 12.0612 24.7042C12.0796 24.7042 12.0946 24.7196 12.0946 24.7383C12.0946 24.7571 12.1125 24.7724 12.1342 24.7724C12.156 24.7724 12.2691 24.8311 12.3856 24.9029C12.5021 24.9747 12.6988 25.0859 12.8227 25.1502C12.9467 25.2144 13.0559 25.2747 13.0655 25.284C13.0836 25.3019 13.2079 25.371 13.4121 25.4769C13.4789 25.5115 13.5413 25.5486 13.5508 25.5594C13.5604 25.5701 13.5916 25.5892 13.6202 25.6018C13.6816 25.6288 13.8036 25.7029 13.8282 25.7281C13.8378 25.7379 13.8846 25.7642 13.9323 25.7866C13.9799 25.809 14.1048 25.8756 14.2096 25.9346C14.3145 25.9936 14.4861 26.0886 14.591 26.1457C14.6959 26.2029 14.877 26.3086 14.9935 26.3807C15.11 26.4528 15.2231 26.5118 15.2449 26.5118C15.2667 26.5118 15.2845 26.5272 15.2845 26.5459C15.2845 26.5647 15.2998 26.58 15.3185 26.58C15.3373 26.58 15.4504 26.6388 15.5699 26.7107C15.7792 26.8366 15.8511 26.877 16.3073 27.1255C16.4217 27.1878 16.57 27.2721 16.6367 27.3127C16.7034 27.3533 16.7815 27.3968 16.8101 27.4094C16.8695 27.4356 16.9923 27.5097 17.0181 27.535C17.0277 27.5444 17.0901 27.5804 17.1568 27.615C17.361 27.7208 17.4853 27.79 17.5035 27.8079C17.5131 27.8172 17.5677 27.8498 17.6249 27.8801C17.6821 27.9105 17.9064 28.0371 18.1233 28.1615C18.3402 28.2859 18.5233 28.3876 18.5301 28.3876C18.5427 28.3876 18.9694 28.6346 19.0638 28.6966C19.0924 28.7153 19.1431 28.7397 19.1764 28.7507C19.2098 28.7618 19.2371 28.7827 19.2371 28.7972C19.2371 28.8117 19.2761 28.8333 19.3238 28.845C19.3715 28.8568 19.4105 28.8815 19.4105 28.8999C19.4105 28.9183 19.4258 28.9333 19.4446 28.9333C19.4634 28.9333 19.557 28.9807 19.6527 29.0386L19.8265 29.1438V29.8571C19.8265 30.268 19.813 30.5704 19.7947 30.5704C19.7525 30.5704 19.5475 30.4623 19.4876 30.4084C19.4615 30.385 19.4179 30.3658 19.3907 30.3658C19.3634 30.3658 19.341 30.3543 19.3409 30.3402C19.3407 30.3261 19.3056 30.2984 19.2628 30.2786C19.1478 30.2253 18.8759 30.0785 18.8558 30.0588C18.8462 30.0494 18.8072 30.0249 18.769 30.0043C18.7309 29.9837 18.5067 29.8571 18.2708 29.723C18.0349 29.5888 17.8281 29.479 17.8114 29.479C17.7946 29.479 17.7809 29.4637 17.7809 29.4449C17.7809 29.4262 17.7586 29.4108 17.7313 29.4108C17.7041 29.4108 17.6612 29.3917 17.6359 29.3682C17.5779 29.3144 17.3427 29.1794 17.2175 29.128C17.165 29.1065 17.1221 29.0769 17.1221 29.0623C17.1221 29.0476 17.1043 29.0357 17.0825 29.0357C17.0491 29.0357 16.8245 28.9101 16.5488 28.7372C16.5113 28.7137 16.4495 28.6796 16.4113 28.6613C16.3732 28.6432 16.2328 28.5655 16.0993 28.4888C15.9658 28.4122 15.8137 28.3316 15.7612 28.3099C15.7088 28.2882 15.6659 28.2584 15.6659 28.2438C15.6659 28.2291 15.6501 28.2171 15.6308 28.2171C15.6115 28.2171 15.457 28.1327 15.2875 28.0295C15.1179 27.9264 14.9621 27.842 14.9412 27.842C14.9202 27.842 14.9031 27.8266 14.9031 27.8079C14.9031 27.7891 14.8892 27.7737 14.8722 27.7737C14.8552 27.7737 14.6961 27.6893 14.5186 27.5862C14.3411 27.483 14.1756 27.3986 14.1507 27.3986C14.1259 27.3986 14.1056 27.3843 14.1056 27.3668C14.1056 27.3493 14.0705 27.3242 14.0276 27.311C13.9847 27.2978 13.9418 27.2776 13.9323 27.2661C13.9149 27.245 13.8119 27.1866 13.5856 27.0693C13.5188 27.0347 13.4564 26.9976 13.4469 26.9868C13.4373 26.9761 13.4061 26.957 13.3775 26.9444C13.3161 26.9174 13.1942 26.8433 13.1695 26.8181C13.1599 26.8083 13.1131 26.782 13.0655 26.7595C13.0178 26.7371 12.8696 26.656 12.7361 26.5794C12.6026 26.5028 12.466 26.4314 12.4327 26.4208C12.3993 26.4102 12.372 26.388 12.372 26.3714C12.372 26.3549 12.3497 26.3413 12.3225 26.3413C12.2952 26.3413 12.2523 26.3221 12.227 26.2987C12.169 26.2449 11.9338 26.1099 11.8086 26.0585C11.7561 26.037 11.7132 26.0074 11.7132 25.9928C11.7132 25.9781 11.6979 25.9661 11.6792 25.9661C11.6604 25.9661 11.5473 25.9074 11.4278 25.8355C11.2185 25.7096 11.1467 25.6692 10.6904 25.4207C10.576 25.3584 10.4242 25.2714 10.353 25.2275C10.2819 25.1836 10.2154 25.1476 10.2053 25.1476C10.1952 25.1476 10.0482 25.0632 9.87862 24.96C9.70908 24.8569 9.55323 24.7724 9.53228 24.7724C9.51134 24.7724 9.49408 24.761 9.49394 24.7469C9.4938 24.7328 9.45868 24.705 9.41592 24.685C9.37317 24.665 9.14517 24.5384 8.90929 24.4036C8.67338 24.2688 8.47471 24.1585 8.46781 24.1585C8.46091 24.1585 8.35748 24.1 8.23797 24.0284C8.11842 23.9569 7.99724 23.8879 7.96864 23.8752C7.90668 23.8476 7.78498 23.7736 7.7606 23.7486C7.75107 23.7388 7.70426 23.7125 7.65659 23.6901C7.53728 23.6341 7.22044 23.4563 7.03248 23.34C6.79876 23.1954 6.50717 23.0338 6.39972 22.9893C6.34729 22.9676 6.30437 22.9379 6.30437 22.9233C6.30437 22.9086 6.28932 22.8966 6.27091 22.8966C6.2525 22.8966 6.09595 22.8122 5.92297 22.7091C5.74999 22.6059 5.59345 22.5215 5.57504 22.5215C5.55663 22.5215 5.54158 22.5095 5.54158 22.4948C5.54158 22.4802 5.49865 22.4505 5.44623 22.4288C5.39381 22.4071 5.26507 22.3406 5.16018 22.2811C5.0553 22.2216 4.88367 22.1262 4.77879 22.069C4.67391 22.0119 4.49278 21.9061 4.37631 21.834C4.25985 21.7619 4.14671 21.7029 4.12494 21.7029C4.10317 21.7029 4.08534 21.6894 4.08534 21.6728C4.08534 21.6562 4.05806 21.6337 4.02467 21.6227C3.96444 21.6027 3.84122 21.5317 3.80797 21.4976C3.79843 21.4878 3.75162 21.4615 3.70395 21.4391C3.65628 21.4168 3.53146 21.3502 3.42657 21.2912C3.32169 21.2321 3.15006 21.137 3.04518 21.0796C2.94029 21.0223 2.7567 20.9165 2.63715 20.8446C2.51764 20.7727 2.40582 20.7139 2.38869 20.7139C2.37153 20.7139 2.35232 20.7024 2.34594 20.6883C2.3396 20.6742 2.28759 20.6391 2.23038 20.6103L2.12636 20.5578L2.117 19.8344C2.10799 19.1384 2.11021 19.1109 2.1748 19.1109C2.21173 19.1109 2.24713 19.1224 2.25351 19.1365ZM31.1644 21.2516V21.9599L30.9769 22.0701C30.8738 22.1308 30.7724 22.1804 30.7516 22.1804C30.7307 22.1804 30.7136 22.1958 30.7136 22.2145C30.7136 22.2333 30.6986 22.2486 30.6802 22.2486C30.6618 22.2486 30.5052 22.333 30.3322 22.4362C30.1593 22.5394 30.0027 22.6238 29.9843 22.6238C29.9659 22.6238 29.9508 22.6391 29.9508 22.6579C29.9508 22.6767 29.9344 22.692 29.9143 22.692C29.8943 22.692 29.7265 22.7786 29.5416 22.8845C29.3567 22.9904 29.1586 23.1016 29.1014 23.1318C29.0442 23.1619 28.9896 23.196 28.98 23.2075C28.9705 23.2191 28.9276 23.2393 28.8847 23.2525C28.8418 23.2656 28.8067 23.2907 28.8067 23.3082C28.8067 23.3257 28.7846 23.34 28.7575 23.34C28.7305 23.34 28.7032 23.3515 28.6968 23.3656C28.6905 23.3797 28.6346 23.418 28.5726 23.4509C28.2902 23.6004 28.2347 23.6326 28.1903 23.6725C28.1642 23.696 28.1206 23.7152 28.0934 23.7152C28.0662 23.7152 28.0439 23.7305 28.0439 23.7493C28.0439 23.768 28.0267 23.7834 28.0058 23.7834C27.9848 23.7834 27.829 23.8678 27.6595 23.971C27.4899 24.0741 27.3451 24.1585 27.3376 24.1585C27.3302 24.1585 27.1311 24.2688 26.8952 24.4036C26.6593 24.5384 26.4313 24.665 26.3885 24.685C26.3458 24.705 26.3107 24.7328 26.3105 24.7469C26.3104 24.761 26.2931 24.7724 26.2722 24.7724C26.2512 24.7724 26.0954 24.8569 25.9258 24.96C25.7563 25.0632 25.6018 25.1476 25.5825 25.1476C25.5632 25.1476 25.5475 25.163 25.5475 25.1817C25.5475 25.2005 25.5252 25.2158 25.4979 25.2158C25.4707 25.2158 25.4275 25.235 25.4019 25.2585C25.3764 25.2819 25.2543 25.3536 25.1307 25.4178C25.0071 25.4819 24.8517 25.5702 24.7853 25.6139C24.7189 25.6576 24.6448 25.6933 24.6206 25.6933C24.5964 25.6933 24.5766 25.7087 24.5766 25.7274C24.5766 25.7462 24.5543 25.7615 24.5271 25.7615C24.4999 25.7615 24.4567 25.7807 24.4311 25.8041C24.3852 25.8463 24.293 25.9001 24.0566 26.0226C23.9898 26.0572 23.9274 26.0932 23.9179 26.1026C23.8828 26.1371 23.7601 26.2074 23.7012 26.2269C23.6678 26.2379 23.6405 26.2605 23.6405 26.2771C23.6405 26.2936 23.6234 26.3072 23.6024 26.3072C23.5815 26.3072 23.4256 26.3916 23.2561 26.4948C23.0865 26.598 22.9417 26.6824 22.9342 26.6824C22.9267 26.6824 22.7062 26.8051 22.4443 26.9552C22.1823 27.1053 21.9542 27.2281 21.9374 27.2281C21.9206 27.2281 21.9069 27.2434 21.9069 27.2622C21.9069 27.2809 21.8874 27.2963 21.8635 27.2964C21.8397 27.2965 21.75 27.3425 21.6642 27.3986C21.5784 27.4547 21.4965 27.5007 21.4821 27.5008C21.4678 27.5008 21.4561 27.1628 21.4561 26.7495C21.4561 26.0636 21.4614 25.9965 21.5168 25.98C21.6187 25.9495 21.8176 25.8494 21.866 25.8042C21.8912 25.7808 21.9328 25.7615 21.9585 25.7615C21.9841 25.7615 22.0103 25.75 22.0167 25.7359C22.023 25.7218 22.0906 25.6798 22.1669 25.6425C22.2432 25.6051 22.3134 25.5668 22.323 25.5572C22.3325 25.5476 22.391 25.513 22.453 25.4801C22.7358 25.3303 22.7909 25.2984 22.8353 25.2585C22.8613 25.235 22.9049 25.2158 22.9322 25.2158C22.9594 25.2158 22.9819 25.2043 22.982 25.1902C22.9821 25.1762 23.0173 25.1485 23.06 25.1286C23.2253 25.052 23.4486 24.9233 23.5145 24.8666C23.5524 24.834 23.6157 24.7974 23.6553 24.7853C23.6948 24.7732 23.735 24.7538 23.7445 24.7423C23.7541 24.7307 23.8087 24.6968 23.8659 24.667C23.9231 24.6371 24.1259 24.5234 24.3166 24.4143C24.8913 24.0856 25.0062 24.0215 25.0967 23.979C25.1444 23.9566 25.1912 23.9292 25.2007 23.918C25.2103 23.9069 25.2415 23.8875 25.2701 23.8749C25.3296 23.8487 25.4524 23.7746 25.4781 23.7493C25.4877 23.7399 25.5501 23.7038 25.6168 23.669C25.8603 23.5422 26.1209 23.3956 26.2916 23.2896C26.3877 23.2299 26.5677 23.1285 26.6916 23.0644C26.8156 23.0003 26.9248 22.939 26.9344 22.9283C26.9439 22.9175 26.9751 22.8984 27.0037 22.8858C27.0631 22.8597 27.1859 22.7856 27.2118 22.7602C27.2319 22.7406 27.5038 22.5937 27.6189 22.5404C27.6616 22.5206 27.6967 22.4929 27.6969 22.4788C27.697 22.4648 27.7194 22.4533 27.7467 22.4533C27.7739 22.4533 27.8168 22.4339 27.842 22.4102C27.8672 22.3866 27.9268 22.3482 27.9745 22.3249C28.0222 22.3016 28.1548 22.2282 28.2692 22.1618C28.3836 22.0953 28.5202 22.0229 28.5726 22.0009C28.6251 21.9789 28.668 21.9505 28.668 21.9379C28.668 21.9253 28.7034 21.9062 28.7467 21.8955C28.7899 21.8849 28.8572 21.8486 28.8961 21.8151C28.9616 21.7585 29.0403 21.7119 29.3094 21.5702C29.3666 21.54 29.4186 21.5039 29.425 21.4898C29.4313 21.4757 29.4575 21.4642 29.4832 21.4642C29.5088 21.4642 29.5511 21.445 29.5772 21.4216C29.6212 21.382 29.7013 21.3356 29.9681 21.195C30.0253 21.1649 30.08 21.1325 30.0895 21.1231C30.1072 21.1058 30.1677 21.0712 30.3954 20.9484C30.4656 20.9105 30.6009 20.8337 30.6963 20.7776C30.7916 20.7215 30.9125 20.6578 30.965 20.6361C31.0175 20.6144 31.0603 20.5846 31.0603 20.57C31.0603 20.5553 31.0838 20.5434 31.1124 20.5434C31.1569 20.5434 31.1644 20.6448 31.1644 21.2516ZM31.1297 24.5514C31.1297 25.2273 31.1275 25.2493 31.0524 25.3181C31.0098 25.3571 30.9396 25.3977 30.8963 25.4084C30.853 25.4191 30.8176 25.4415 30.8176 25.4582C30.8176 25.475 30.7953 25.4887 30.7681 25.4887C30.7409 25.4887 30.6977 25.5079 30.6721 25.5313C30.6262 25.5734 30.534 25.6272 30.2976 25.7498C30.2308 25.7844 30.1684 25.8215 30.1589 25.8322C30.1493 25.843 30.1181 25.8621 30.0895 25.8746C30.0609 25.8872 30.0141 25.9125 29.9855 25.9308C29.889 25.9928 29.4837 26.2228 29.3527 26.29C29.2812 26.3268 29.2227 26.3687 29.2227 26.3832C29.2227 26.3977 29.209 26.4095 29.1922 26.4095C29.1755 26.4095 28.9687 26.5198 28.7328 26.6546C28.4969 26.7894 28.2689 26.916 28.2262 26.9359C28.1834 26.9559 28.1483 26.9838 28.1482 26.9978C28.148 27.0119 28.1297 27.0234 28.1075 27.0234C28.0852 27.0234 27.9544 27.0925 27.8167 27.1769C27.679 27.2613 27.549 27.3304 27.5277 27.3304C27.5065 27.3304 27.4891 27.3457 27.4891 27.3645C27.4891 27.3832 27.4741 27.3986 27.4556 27.3986C27.4373 27.3986 27.3085 27.4662 27.1696 27.5489C26.7869 27.7765 26.5423 27.9118 26.4749 27.9331C26.4416 27.9436 26.4143 27.9658 26.4143 27.9824C26.4143 27.9989 26.392 28.0125 26.3647 28.0125C26.3375 28.0125 26.2943 28.0317 26.2687 28.0551C26.2228 28.0972 26.1306 28.1511 25.8942 28.2736C25.8275 28.3082 25.7651 28.3453 25.7555 28.3561C25.746 28.3669 25.6835 28.4053 25.6168 28.4414C25.5501 28.4775 25.4877 28.5147 25.4781 28.5241C25.4685 28.5334 25.4061 28.5694 25.3394 28.604C25.103 28.7266 25.0108 28.7804 24.9649 28.8225C24.9393 28.846 24.8961 28.8651 24.8689 28.8651C24.8416 28.8651 24.8193 28.8771 24.8193 28.8918C24.8193 28.9064 24.7765 28.9363 24.724 28.9581C24.6715 28.98 24.457 29.0993 24.2473 29.2233C24.0375 29.3473 23.8385 29.4574 23.8052 29.4679C23.7718 29.4784 23.7445 29.5005 23.7445 29.5171C23.7445 29.5337 23.7222 29.5472 23.695 29.5472C23.6677 29.5472 23.6245 29.5664 23.599 29.5899C23.5531 29.632 23.4608 29.6858 23.2245 29.8084C23.1577 29.8429 23.0953 29.88 23.0858 29.8908C23.0762 29.9015 23.045 29.9206 23.0164 29.9332C22.9569 29.9594 22.8341 30.0335 22.8083 30.0588C22.7988 30.0682 22.7364 30.1042 22.6696 30.1388C22.4332 30.2613 22.341 30.3151 22.2951 30.3573C22.2695 30.3807 22.2263 30.3999 22.1991 30.3999C22.1719 30.3999 22.1496 30.4152 22.1496 30.434C22.1496 30.4527 22.1203 30.4681 22.0845 30.4681C22.0487 30.4681 22 30.4911 21.9762 30.5193C21.9525 30.5474 21.9116 30.5704 21.8853 30.5704C21.859 30.5704 21.8375 30.5858 21.8375 30.6045C21.8375 30.6233 21.8177 30.6386 21.7936 30.6386C21.7694 30.6386 21.6911 30.6777 21.6196 30.7255C21.5481 30.7733 21.4743 30.8031 21.4555 30.7917C21.435 30.7792 21.4215 30.482 21.4215 30.0407V29.3104L21.6208 29.213C21.7305 29.1595 21.8862 29.0746 21.9669 29.0245C22.0475 28.9744 22.1294 28.9333 22.1489 28.9333C22.1683 28.9333 22.1843 28.918 22.1843 28.8992C22.1843 28.8805 22.2018 28.8651 22.2232 28.8651C22.2446 28.8651 22.3778 28.7961 22.5192 28.7117C22.6605 28.6272 22.7831 28.5582 22.7916 28.5582C22.8001 28.5582 22.8924 28.5045 22.9967 28.4388C23.1011 28.3732 23.1944 28.3194 23.2042 28.3194C23.2139 28.3194 23.3376 28.2504 23.4789 28.166C23.6203 28.0816 23.7535 28.0125 23.7749 28.0125C23.7963 28.0125 23.8138 27.9971 23.8138 27.9784C23.8138 27.9596 23.8373 27.9443 23.8659 27.9443C23.8945 27.9443 23.9179 27.9289 23.9179 27.9102C23.9179 27.8914 23.9402 27.8761 23.9674 27.8761C23.9946 27.8761 24.0382 27.8569 24.0643 27.8334C24.0904 27.81 24.1578 27.7661 24.2142 27.736C24.2705 27.7059 24.3712 27.6522 24.4379 27.6166C24.5047 27.5811 24.5671 27.5433 24.5766 27.5325C24.5862 27.5218 24.6174 27.502 24.646 27.4886C24.6746 27.4751 24.7292 27.4454 24.7673 27.4226C25.0204 27.2712 25.4828 27.0234 25.5122 27.0234C25.5316 27.0234 25.5475 27.0098 25.5475 26.9933C25.5475 26.9767 25.5748 26.9542 25.6081 26.9431C25.6671 26.9237 25.7897 26.8533 25.8249 26.8188C25.8344 26.8094 25.8929 26.7749 25.9549 26.7421C26.0169 26.7092 26.1182 26.6555 26.1802 26.6227C26.2422 26.5899 26.3007 26.5535 26.3102 26.542C26.3198 26.5305 26.3627 26.5103 26.4056 26.4971C26.4485 26.4839 26.4836 26.4588 26.4836 26.4413C26.4836 26.4238 26.507 26.4095 26.5356 26.4095C26.5642 26.4095 26.5876 26.3975 26.5876 26.3829C26.5876 26.3683 26.6305 26.3385 26.683 26.3168C26.7833 26.2753 27.0475 26.1298 27.3249 25.9631C27.4158 25.9085 27.5042 25.8638 27.5214 25.8638C27.5386 25.8638 27.5579 25.8523 27.5642 25.8383C27.5706 25.8242 27.6265 25.7858 27.6885 25.753C27.9709 25.6034 28.0264 25.5712 28.0708 25.5313C28.0968 25.5079 28.1391 25.4887 28.1648 25.4887C28.1905 25.4887 28.2166 25.4772 28.223 25.4631C28.2336 25.4396 28.283 25.4107 28.5812 25.2536C28.6385 25.2234 28.6931 25.19 28.7026 25.1792C28.7122 25.1685 28.7434 25.1494 28.772 25.1368C28.8006 25.1242 28.8474 25.0991 28.876 25.0809C29.0763 24.9538 29.5198 24.6972 29.7081 24.5995C29.8321 24.5352 29.9387 24.4711 29.945 24.457C29.9514 24.4429 29.9704 24.4314 29.9872 24.4314C30.004 24.4314 30.1593 24.347 30.3322 24.2438C30.5052 24.1406 30.6605 24.0562 30.6773 24.0562C30.6941 24.0562 30.713 24.0447 30.7194 24.0307C30.7382 23.9889 31.0737 23.8215 31.1029 23.8393C31.1176 23.8483 31.1297 24.1687 31.1297 24.5514Z" fill="white"/>
</svg>
