<svg width="29" height="29" viewBox="0 0 29 29" fill="none" xmlns="http://www.w3.org/2000/svg">
<path fill-rule="evenodd" clip-rule="evenodd" d="M16.4576 0.312918C16.3269 0.358607 16.3304 0.35297 15.6152 1.666C15.2331 2.36762 14.9164 2.93243 14.8851 2.96829C14.7947 3.07173 14.76 3.08601 14.5996 3.08575C14.5228 3.08562 14.2846 3.09306 14.0703 3.10227C13.6814 3.11898 13.6805 3.11895 13.5942 3.08633C13.5395 3.06566 13.4824 3.02898 13.4386 2.98655C13.4006 2.94964 13.0167 2.41734 12.5855 1.80366C12.1542 1.18998 11.7809 0.665882 11.7559 0.639016C11.6946 0.573287 11.58 0.521555 11.4954 0.521381C11.445 0.52128 11.0979 0.631003 10.148 0.947335C9.44419 1.18169 8.85532 1.38033 8.83935 1.38875C8.79011 1.41472 8.72298 1.50018 8.6949 1.57262C8.66823 1.64145 8.66853 1.64674 8.77949 3.04134C8.88293 4.34143 8.88936 4.44663 8.87002 4.52066C8.82738 4.68392 8.79152 4.71796 8.32836 5.03508C8.09557 5.19448 7.87131 5.34114 7.83002 5.36099C7.76808 5.39077 7.73309 5.3971 7.62997 5.39722L7.50499 5.39735L6.1688 4.85033C4.99136 4.36828 4.8235 4.3033 4.75576 4.3033C4.66392 4.3033 4.59586 4.3239 4.53113 4.37125C4.48264 4.40672 2.87663 6.35898 2.83698 6.43065C2.80375 6.49072 2.80767 6.66001 2.84386 6.72691C2.86003 6.75682 3.24292 7.26111 3.69474 7.84755C4.14655 8.43399 4.53348 8.94422 4.5546 8.98141C4.58747 9.03931 4.59302 9.06668 4.5933 9.17217L4.59362 9.29535L4.34682 9.87409C4.08078 10.498 4.05853 10.5369 3.92261 10.617C3.84722 10.6614 3.78177 10.6744 2.44685 10.911C1.67858 11.0472 1.02117 11.1689 0.985951 11.1815C0.904976 11.2105 0.828781 11.276 0.790889 11.3492C0.756452 11.4157 0.741028 11.5053 0.661715 12.0993C0.553995 12.906 0.483931 13.6747 0.483901 14.0504L0.483887 14.125L0.619898 14.1767C0.694711 14.2051 1.32636 14.4337 2.02357 14.6847C2.72079 14.9357 3.31003 15.1506 3.33298 15.1623C3.38331 15.188 3.48701 15.2964 3.51837 15.3561C3.54047 15.3983 3.57996 15.5943 3.73356 16.4241C3.78736 16.7148 3.80574 16.8457 3.79864 16.8878C3.78016 16.9973 3.734 17.0932 3.66804 17.1592C3.63232 17.1949 3.15354 17.6367 2.60405 18.141C1.96657 18.7261 1.59244 19.0797 1.5703 19.118C1.54304 19.1652 1.53557 19.1997 1.53541 19.2794L1.53521 19.3809L2.0164 20.301C2.76169 21.7262 2.68507 21.5906 2.77468 21.6434C2.91644 21.727 2.83982 21.7387 4.35993 21.4017C5.8662 21.0678 5.82261 21.0748 5.98115 21.142C6.04817 21.1704 6.13125 21.2493 6.60345 21.7327C7.18693 22.3301 7.2074 22.3559 7.22657 22.5182C7.2351 22.5903 7.20266 22.7266 6.88034 23.9729C6.60207 25.0487 6.52674 25.3593 6.53406 25.4002C6.54832 25.4798 6.61249 25.6006 6.65675 25.6313C6.76374 25.7054 8.79461 26.8215 8.84854 26.8358C8.93007 26.8575 9.02247 26.8427 9.10384 26.7951C9.14198 26.7727 9.58639 26.3398 10.1641 25.7622C11.027 24.8994 11.1688 24.7635 11.2352 24.7354C11.3871 24.671 11.4056 24.6731 12.2176 24.8507C12.7523 24.9676 12.9771 25.0227 13.0209 25.0476C13.0543 25.0666 13.1106 25.1141 13.1459 25.153C13.209 25.2226 13.2171 25.2445 13.6348 26.4829C13.8684 27.1754 14.0727 27.7771 14.0888 27.82C14.1233 27.9122 14.1994 28 14.2825 28.0434C14.3339 28.0702 14.3721 28.0754 14.5555 28.0801C14.9209 28.0894 15.6176 28.0422 16.4596 27.9511C16.7369 27.9211 16.8906 27.8981 16.9302 27.8809C17.0132 27.8447 17.0744 27.7897 17.1123 27.7174C17.1345 27.6748 17.2377 27.2194 17.4379 26.2802C17.7583 24.7772 17.7412 24.8379 17.8767 24.7178C17.9433 24.6588 18.0023 24.6337 18.6013 24.4094C19.3138 24.1426 19.3591 24.1309 19.5125 24.1752C19.5817 24.1952 19.7286 24.307 20.687 25.069C21.2895 25.548 21.8017 25.9499 21.8253 25.9622C21.8872 25.9945 22.0209 26.0027 22.0914 25.9785C22.1577 25.9556 24.0837 24.524 24.1819 24.4244C24.2535 24.3519 24.298 24.2286 24.284 24.1419C24.2792 24.1125 24.0462 23.4955 23.7662 22.7708C23.3969 21.8151 23.255 21.4311 23.2496 21.3733C23.2409 21.2808 23.2717 21.1623 23.3249 21.083C23.3921 20.9831 23.9842 20.192 24.0227 20.1509C24.0807 20.0889 24.1621 20.0423 24.2531 20.019C24.3306 19.999 24.395 20.0046 25.6977 20.1423C26.4476 20.2216 27.0961 20.2865 27.1388 20.2865C27.2302 20.2865 27.3394 20.2382 27.395 20.173C27.4423 20.1177 27.4268 20.1573 27.9211 18.8239C28.3723 17.6066 28.3717 17.6084 28.331 17.4742C28.3217 17.4438 28.2961 17.3974 28.2741 17.3711C28.252 17.3447 27.7101 16.942 27.0698 16.476C25.8066 15.5569 25.8498 15.593 25.7968 15.4131C25.7753 15.3404 25.7758 15.2976 25.8034 14.858C25.8388 14.292 25.8391 14.2894 25.8839 14.2023C25.9566 14.0609 25.968 14.0544 27.3003 13.3979C27.9866 13.0597 28.5695 12.7653 28.5956 12.7436C28.6541 12.6951 28.6985 12.612 28.7095 12.5304C28.7219 12.4386 28.1553 9.87216 28.1031 9.7838C28.0553 9.70278 27.9674 9.64125 27.8724 9.62226C27.8306 9.61388 27.1677 9.56758 26.3995 9.51937C25.6312 9.47116 24.979 9.42556 24.9503 9.41805C24.8882 9.40187 24.7828 9.33537 24.7286 9.27823C24.6911 9.23869 24.3719 8.67484 24.2871 8.49836C24.2348 8.38936 24.229 8.23087 24.2739 8.13348C24.2893 8.10017 24.6249 7.53612 25.0198 6.88004L25.7378 5.68716L25.7376 5.57124C25.7374 5.4917 25.7298 5.44165 25.7134 5.41178C25.6717 5.33627 23.7678 3.43031 23.6975 3.39371C23.6138 3.35012 23.5048 3.33841 23.428 3.36476C23.3949 3.3761 22.8109 3.69033 22.1301 4.06305C20.7647 4.81059 20.8066 4.79138 20.6253 4.7537C20.5123 4.73021 19.8198 4.34341 19.7483 4.26382C19.6751 4.18247 19.626 4.07699 19.6184 3.98542C19.6148 3.94108 19.5896 3.29119 19.5624 2.54119C19.523 1.45571 19.5085 1.16711 19.4912 1.12632C19.4608 1.05464 19.375 0.965303 19.309 0.936626C19.2342 0.904065 16.6209 0.289081 16.5636 0.29053C16.5388 0.291153 16.4911 0.301239 16.4576 0.312918ZM15.0924 6.04237C16.1379 6.1077 17.0707 6.3321 18.0067 6.74348C19.4441 7.37516 20.7066 8.45145 21.5781 9.78803C22.2306 10.7886 22.6653 11.9773 22.8102 13.1571C22.8899 13.8061 22.8899 14.522 22.8102 15.1713C22.6592 16.4012 22.2145 17.593 21.5177 18.6346C20.5041 20.1498 19.0171 21.2872 17.2904 21.868C15.8414 22.3555 14.2541 22.4355 12.7575 22.0966C11.5867 21.8315 10.4497 21.2945 9.51268 20.5642C7.91962 19.3224 6.85369 17.5752 6.49241 15.6133C6.29711 14.5528 6.32549 13.3911 6.57259 12.3311C7.00648 10.4699 8.09908 8.81843 9.66646 7.6547C10.5861 6.97191 11.6483 6.48604 12.7763 6.2322C13.2378 6.12836 13.6667 6.07065 14.2247 6.03732C14.409 6.0263 14.8791 6.02904 15.0924 6.04237Z" fill="white"/>
</svg>
