<svg width="26" height="29" viewBox="0 0 26 29" fill="none" xmlns="http://www.w3.org/2000/svg">
<path fill-rule="evenodd" clip-rule="evenodd" d="M1.85913 0.374118C1.36193 0.507862 0.933041 0.825017 0.646557 1.27087C0.30295 1.80563 0.323821 1.15395 0.323169 11.3771L0.322571 20.6996H4.01844H7.71431V10.4951V0.290527L4.92882 0.29411C2.71309 0.296932 2.08523 0.313325 1.85913 0.374118ZM8.6517 10.4815L8.66545 20.6725L10.9911 20.6866L13.3169 20.7008L13.301 21.148L13.2853 21.5952L6.80393 21.609L0.322571 21.6228L0.32431 24.7029C0.326104 27.9539 0.320614 27.882 0.577151 28.0185C0.665852 28.0656 2.66276 28.0816 8.4656 28.0816C15.7853 28.0816 16.242 28.0761 16.3505 27.9866C16.4173 27.9314 16.6431 27.4483 16.8896 26.8332L17.3138 25.7747H18.8563H20.3987L20.8229 26.8332C21.0694 27.4483 21.2952 27.9314 21.3621 27.9866C21.4603 28.0677 21.5957 28.0816 22.2839 28.0816C23.1308 28.0816 23.3125 28.0436 23.4159 27.8449C23.452 27.7755 23.4818 27.3356 23.4898 26.7518L23.5033 25.7747L23.848 25.7474C24.4481 25.6997 24.4001 26.0334 24.4001 21.9149V18.3656H24.6754C24.9621 18.3656 25.1417 18.2997 25.2544 18.1532C25.3013 18.0921 25.3211 17.7425 25.3223 16.9502C25.324 15.8519 25.322 15.8314 25.1983 15.7153L25.0724 15.5973H20.5784H16.0844V8.95548C16.0844 4.72098 16.0645 2.20914 16.0296 2.0253C15.8674 1.17105 15.2458 0.528597 14.4104 0.351537C14.2189 0.310991 13.2035 0.290527 11.3802 0.290527H8.638L8.6517 10.4815ZM5.73294 8.78282C5.86344 8.91309 5.86637 8.93507 5.86637 9.77955C5.86637 10.6402 5.86588 10.6436 5.7231 10.7862C5.53201 10.9771 5.27927 10.9783 5.10133 10.7894C4.98377 10.6645 4.96757 10.5921 4.9511 10.117L4.93262 9.58453L4.39645 9.56303C3.92213 9.54403 3.8443 9.52656 3.72195 9.41176C3.54341 9.24425 3.53423 8.95336 3.70179 8.77517C3.81598 8.6538 3.84995 8.64956 4.70978 8.64956C5.58201 8.64956 5.60217 8.65217 5.73294 8.78282ZM12.6899 8.78282C12.8627 8.95532 12.8635 9.19382 12.6922 9.39287C12.5674 9.5379 12.5352 9.54604 12.019 9.56363L11.4768 9.58208L11.4549 10.1266C11.4342 10.6414 11.4248 10.6781 11.2827 10.8002C11.0976 10.9592 10.8729 10.9654 10.6838 10.8168L10.5406 10.7043V9.78943V8.87455L10.6838 8.76208C10.815 8.65895 10.8992 8.64956 11.6917 8.64956C12.5374 8.64956 12.5594 8.65249 12.6899 8.78282ZM24.443 16.9679L24.4272 17.4157L18.8699 17.4295L13.3125 17.4433V16.9817V16.5201H18.8856H24.4588L24.443 16.9679ZM23.4761 19.7497V21.1338H18.8563H14.2364V19.7497V18.3656H18.8563H23.4761V19.7497ZM16.7233 19.3956C16.5568 19.5265 16.5138 19.715 16.6026 19.9258C16.7204 20.2058 16.8122 20.2165 18.9524 20.1995C20.9033 20.1841 20.9196 20.183 21.0397 20.063C21.218 19.8848 21.2047 19.5833 21.011 19.417L20.8612 19.2883H18.8606C16.9498 19.2883 16.8538 19.2932 16.7233 19.3956ZM23.4761 23.4407V24.8248H18.8563H14.2364V23.4407V22.0566H18.8563H23.4761V23.4407ZM16.778 23.0643C16.5196 23.2043 16.4872 23.5749 16.7154 23.78C16.8511 23.9019 16.8539 23.9021 18.8472 23.9021C20.5892 23.9021 20.8589 23.891 20.9673 23.8152C21.2502 23.6173 21.2234 23.2166 20.9167 23.0582C20.6887 22.9405 16.9965 22.946 16.778 23.0643ZM10.343 23.5804C10.4522 23.6661 10.4858 23.7403 10.4845 23.8925C10.4809 24.3076 10.2904 24.3906 9.3413 24.3906H8.63827V24.7068C8.63827 24.966 8.61621 25.0429 8.51598 25.133C8.33445 25.2961 8.21743 25.3206 8.01753 25.2373C7.81545 25.1529 7.71431 24.9402 7.71431 24.5996V24.3906H7.04302C6.24341 24.3906 6.04665 24.3364 5.94257 24.0878C5.85909 23.8881 5.8836 23.7713 6.04698 23.59L6.1571 23.4679H8.17841C10.1411 23.4679 10.204 23.4711 10.343 23.5804ZM16.2785 25.8426C16.2617 25.8948 16.1428 26.2063 16.0145 26.5346L15.781 27.1317L15.4707 27.148L15.1604 27.1643V26.4559V25.7476H15.7347C16.2571 25.7476 16.3063 25.7562 16.2785 25.8426ZM22.5521 26.4559V27.1643L22.2462 27.148L21.9402 27.1317L21.6756 26.4532C21.5301 26.0801 21.411 25.7686 21.4109 25.7612C21.4108 25.7537 21.6676 25.7476 21.9814 25.7476H22.5521V26.4559Z" fill="white"/>
</svg>
