<svg width="36" height="18" viewBox="0 0 36 18" fill="none" xmlns="http://www.w3.org/2000/svg">
<path fill-rule="evenodd" clip-rule="evenodd" d="M7.53343 0.152045C7.35084 0.186076 7.13913 0.300732 7.0069 0.437193C6.8259 0.624007 6.73374 0.823803 6.70158 1.09904L6.68748 1.21983H5.44457C4.04715 1.21983 4.06073 1.21854 3.8888 1.36752C3.78627 1.45636 3.69366 1.61776 3.67018 1.74848C3.63869 1.92389 3.76777 2.16159 3.94524 2.25502L4.03386 2.30168L8.19494 2.30649C11.1888 2.30994 12.3808 2.3179 12.4444 2.33485C12.7046 2.40415 12.8545 2.70858 12.7626 2.9809C12.7172 3.11549 12.5708 3.27856 12.4363 3.34436L12.3347 3.39404L7.10666 3.40454L1.87864 3.41505L1.79328 3.46053C1.62161 3.55201 1.48831 3.73637 1.45152 3.9332C1.42792 4.05939 1.49119 4.23211 1.60033 4.33956C1.77418 4.51072 1.36742 4.49734 6.3781 4.49671L10.8366 4.49614L10.9294 4.54039C11.1028 4.62305 11.2144 4.80079 11.2144 4.99451C11.2144 5.2041 11.0547 5.4362 10.8469 5.52863L10.7343 5.57876L6.86126 5.58926C3.98047 5.59707 2.9746 5.60602 2.93491 5.62421C2.76695 5.70118 2.63717 5.85353 2.5829 6.03742C2.51059 6.28247 2.6211 6.50827 2.87089 6.62589L2.96692 6.67111L7.92389 6.67645C12.754 6.68164 12.8829 6.68282 12.9599 6.72187C13.208 6.8478 13.3087 7.13757 13.1908 7.38671C13.1227 7.53065 13.0252 7.63527 12.9045 7.69377L12.8041 7.74247L6.86126 7.75297L0.918388 7.76347L0.80685 7.81311C0.681334 7.86899 0.543272 8.00438 0.489413 8.12443C0.467455 8.17338 0.452795 8.26293 0.451771 8.35425C0.45032 8.48542 0.458023 8.51649 0.514102 8.60579C0.553557 8.6686 0.61815 8.73206 0.682551 8.77126L0.787005 8.83482L5.06711 8.84533L9.34724 8.85583L9.45052 8.90589C9.63222 8.99395 9.73436 9.18121 9.71505 9.39083C9.69604 9.59721 9.58519 9.76251 9.39702 9.86513L9.28322 9.92718L7.60594 9.93292L5.92867 9.93867L5.90329 10.227C5.88934 10.3856 5.86881 10.6146 5.85771 10.7359C5.8466 10.8573 5.8327 11.018 5.82684 11.0931C5.81642 11.2261 5.79726 11.4408 5.75177 11.9333C5.7395 12.0662 5.72505 12.2316 5.71965 12.301C5.71425 12.3703 5.70463 12.4837 5.69829 12.553C5.69193 12.6224 5.68284 12.7264 5.67806 12.7841C5.65832 13.0228 5.6398 13.2291 5.6328 13.2883C5.6085 13.4942 5.59164 13.7803 5.592 13.9815C5.59232 14.1709 5.60096 14.2336 5.63991 14.3291C5.70905 14.4986 5.87293 14.6696 6.04633 14.7531L6.18909 14.8218H7.47947H8.76985L8.79464 14.6432C8.89918 13.8907 9.26579 13.1682 9.83797 12.587C10.2748 12.1433 10.6909 11.8652 11.2357 11.6528C11.833 11.42 12.4594 11.3442 13.0709 11.4308C13.8077 11.5351 14.3972 11.8289 14.9071 12.3458C15.3458 12.7907 15.6073 13.2757 15.7423 13.8953C15.779 14.0641 15.7888 14.1818 15.79 14.4699L15.7916 14.8321L21.4065 14.8322L27.0215 14.8323L27.0366 14.6905C27.0587 14.4831 27.1814 14.0338 27.2819 13.7925C27.4743 13.3304 27.7443 12.9313 28.1148 12.5615C28.4762 12.2007 28.7552 11.9965 29.1577 11.7979C29.7247 11.5182 30.2087 11.4043 30.8355 11.4031C31.2212 11.4024 31.4304 11.4289 31.7637 11.5209C33.1605 11.9063 34.0926 13.1734 34.058 14.6397L34.0533 14.8357L34.4076 14.8288L34.7618 14.8218L34.9284 14.7435C35.1516 14.6386 35.3223 14.4711 35.4267 14.2546C35.5095 14.083 35.5219 14.0057 35.5828 13.2778C35.5968 13.1103 35.6117 12.9448 35.6159 12.9102C35.6201 12.8755 35.6297 12.7668 35.6373 12.6686C35.645 12.5704 35.6545 12.4619 35.6586 12.4276C35.6627 12.3933 35.6718 12.2798 35.6788 12.1755C35.6859 12.0712 35.6955 11.9717 35.7001 11.9543C35.7048 11.937 35.7145 11.833 35.7215 11.7233C35.7286 11.6135 35.7434 11.4386 35.7543 11.3346C35.7652 11.2307 35.7794 11.07 35.7859 10.9775C35.7925 10.8851 35.8023 10.7717 35.8077 10.7254C35.8132 10.6792 35.8227 10.5705 35.8288 10.4839C35.8349 10.3972 35.8491 10.2365 35.8603 10.1267C35.8715 10.017 35.8863 9.85156 35.893 9.75913C35.8998 9.6667 35.9138 9.51545 35.924 9.42302C35.9586 9.11203 35.915 8.79014 35.7918 8.4462C35.6564 8.06824 35.5713 7.93892 35.1786 7.51416C34.5856 6.87272 34.3395 6.60772 34.0056 6.25098C33.636 5.85594 33.1844 5.37087 33.078 5.25447C32.1867 4.28003 32.0612 4.17354 31.5782 3.98185C31.1398 3.80787 31.2769 3.81718 29.0369 3.80926C27.942 3.8054 27.0503 3.79546 27.0552 3.7872C27.0602 3.77893 27.0707 3.66818 27.0786 3.54109C27.0864 3.414 27.0967 3.29111 27.1015 3.268C27.1063 3.24489 27.1157 3.14091 27.1224 3.03692C27.1291 2.93294 27.1433 2.76751 27.154 2.6693C27.1646 2.57109 27.179 2.40566 27.1859 2.30168C27.1928 2.1977 27.2025 2.08899 27.2075 2.0601C27.2125 2.03122 27.222 1.91778 27.2287 1.80802C27.2354 1.69826 27.2452 1.58482 27.2505 1.55594C27.2837 1.3737 27.302 0.923292 27.2807 0.810149C27.2179 0.475614 26.9504 0.212146 26.6109 0.150343C26.4478 0.120661 7.6929 0.122341 7.53343 0.152045ZM30.9604 4.76075C31.1214 4.80098 31.4509 4.95611 31.5456 5.03634C31.5842 5.06894 32.2087 5.73368 32.9336 6.51356L34.2515 7.93153L30.9449 7.93684C29.1263 7.93976 27.6352 7.93907 27.6313 7.93529C27.6275 7.93149 27.6339 7.8292 27.6456 7.70797C27.6572 7.58674 27.6908 7.21169 27.7201 6.87452C27.7701 6.29854 27.8643 5.21981 27.8942 4.88028L27.9076 4.72798H29.3685C30.6216 4.72798 30.8479 4.73264 30.9604 4.76075ZM12.2493 12.0964C11.9465 12.1245 11.5032 12.2525 11.2144 12.395C10.3352 12.829 9.73917 13.5758 9.5281 14.5079C9.46855 14.7709 9.45466 15.2628 9.49968 15.515C9.66017 16.4142 10.2748 17.1445 11.1236 17.4446C11.7651 17.6713 12.5133 17.645 13.1766 17.3723C14.3217 16.9015 15.0926 15.7894 15.0931 14.6073C15.0937 13.2059 14.008 12.1157 12.5907 12.0946C12.4382 12.0923 12.2845 12.0931 12.2493 12.0964ZM30.494 12.0969C30.4588 12.1003 30.3367 12.1212 30.2226 12.1435C29.2884 12.3259 28.4689 12.9411 28.0399 13.7819C27.898 14.0599 27.7792 14.4317 27.741 14.7168C27.7151 14.9102 27.7277 15.4039 27.7628 15.5681C27.9323 16.3622 28.3816 16.9594 29.0724 17.3087C29.4909 17.5204 29.8001 17.5915 30.302 17.5913C30.6869 17.5913 30.8665 17.5627 31.2286 17.4439C32.464 17.0387 33.3423 15.869 33.3473 14.6222C33.3523 13.3747 32.5094 12.3639 31.2695 12.1308C31.11 12.1008 30.6609 12.0812 30.494 12.0969ZM12.727 13.5217C13.1487 13.6143 13.5228 13.9783 13.6345 14.4047C13.6774 14.5684 13.6783 14.8899 13.6362 15.0537C13.5235 15.4929 13.1647 15.9089 12.7421 16.0903C12.4387 16.2206 12.0575 16.2428 11.7585 16.1479C11.3533 16.0192 11.0338 15.6868 10.9269 15.2828C10.8849 15.1241 10.8849 14.7933 10.9269 14.6319C11.0331 14.2234 11.3404 13.8413 11.7147 13.6522C12.0587 13.4785 12.3558 13.4401 12.727 13.5217ZM30.9848 13.5214C31.3962 13.6185 31.7452 13.947 31.8755 14.3596C31.9305 14.5337 31.9396 14.8593 31.8946 15.0424C31.8525 15.2141 31.695 15.5197 31.5784 15.6562C31.3711 15.8986 31.0673 16.0885 30.7608 16.1673C30.5819 16.2132 30.2593 16.2144 30.0838 16.1697C29.6715 16.0647 29.3338 15.7533 29.2018 15.3564C29.1345 15.1542 29.1285 14.7875 29.1892 14.5919C29.4334 13.8056 30.2149 13.3396 30.9848 13.5214Z" fill="white"/>
</svg>
