<svg width="29" height="30" viewBox="0 0 29 30" fill="none" xmlns="http://www.w3.org/2000/svg">
<path fill-rule="evenodd" clip-rule="evenodd" d="M13.8424 0.49325C11.1008 0.616422 8.52729 1.5245 6.27595 3.16306C5.77163 3.53013 5.03734 4.17014 4.88427 4.37607C4.7794 4.51716 4.70395 4.69571 4.67352 4.87487C4.62891 5.13739 4.64597 5.21019 4.9627 6.10949C8.17505 15.2303 9.6711 19.4513 9.72142 19.5361C9.95124 19.923 10.4178 20.1328 10.8516 20.0442C11.0822 19.9972 11.224 19.9187 11.4518 19.7119C11.7844 19.41 12.1009 19.147 12.4703 18.8655C13.7424 17.8962 14.9392 17.3003 15.9729 17.1217C16.328 17.0603 17.1223 17.0693 17.7514 17.1417C18.3843 17.2146 18.8084 17.309 19.8093 17.5997C21.0957 17.9733 21.5339 18.0696 22.2902 18.1451C22.6694 18.183 23.4466 18.1833 23.8591 18.1459C25.126 18.0309 26.4358 17.6675 27.6089 17.1055C28.0747 16.8823 28.2539 16.7325 28.3908 16.452C28.5263 16.1742 28.5157 16.8183 28.516 8.78855C28.5162 4.17167 28.51 1.52382 28.4987 1.44478C28.4332 0.984805 28.1224 0.63329 27.6793 0.518188C27.5041 0.472658 27.3381 0.472457 27.1644 0.517567C26.9862 0.563864 26.9139 0.60231 26.6658 0.782659C25.3867 1.71261 23.9605 2.39528 22.8533 2.60749C22.1933 2.73402 21.5832 2.71711 20.953 2.55484C20.467 2.42971 20.0838 2.27167 18.9376 1.72363C18.5966 1.56057 18.1801 1.36739 18.012 1.29435C17.0502 0.876238 16.1485 0.627321 15.2353 0.527808C14.9848 0.500534 14.1445 0.479668 13.8424 0.49325ZM15.0163 2.73383C15.1282 2.74785 15.2262 2.76657 15.234 2.77544C15.2419 2.78429 15.4526 3.58466 15.7023 4.55404L16.1563 6.31654L16.3293 6.33799C16.954 6.4154 18.1659 6.86997 19.6459 7.58194C19.7735 7.64332 19.8811 7.69029 19.885 7.68631C19.8889 7.68233 19.7183 6.90401 19.5059 5.9567C19.2935 5.00941 19.1225 4.23159 19.1258 4.22825C19.1291 4.22489 19.2721 4.27911 19.4436 4.34874C20.4026 4.73804 21.158 4.90008 22.0109 4.8994C22.4976 4.89904 22.8609 4.86028 23.3854 4.75283C23.5235 4.72451 23.6391 4.70399 23.6423 4.70721C23.6454 4.71042 23.7088 5.47579 23.7831 6.40804C23.8574 7.34031 23.9221 8.10703 23.9269 8.1119C23.941 8.12633 24.4701 7.93824 24.7749 7.81043C25.1063 7.67147 25.8327 7.30949 26.1244 7.13794C26.2368 7.07184 26.3318 7.01775 26.3356 7.01775C26.3393 7.01775 26.3423 8.05171 26.3423 9.31543V11.6131L26.203 11.6725C25.7224 11.8776 25.0501 12.0957 24.5383 12.2128C24.3913 12.2464 24.2686 12.2763 24.2657 12.2792C24.2628 12.2822 24.3214 13.0716 24.3957 14.0336C24.4701 14.9956 24.5261 15.7876 24.5202 15.7936C24.5041 15.81 24.2111 15.8657 23.9179 15.9081C23.5294 15.9644 23.0888 15.985 22.7254 15.9638C22.2968 15.9389 21.7793 15.8654 21.7429 15.8243C21.735 15.8153 21.5482 15.011 21.328 14.0371C21.1077 13.0631 20.921 12.2589 20.9131 12.2499C20.8959 12.2305 19.5407 11.8592 18.7399 11.6545C18.2312 11.5244 17.5911 11.3813 17.5163 11.381C17.4933 11.3809 17.5794 11.7298 17.9608 13.1824C18.2209 14.1733 18.4301 14.9877 18.4257 14.9921C18.4214 14.9966 18.3103 14.987 18.179 14.9708C17.388 14.8735 16.6036 14.8426 16.0432 14.8868C15.5913 14.9224 14.975 15.0377 14.5433 15.1674C14.4643 15.1911 14.394 15.2053 14.3872 15.1989C14.3805 15.1925 14.0883 14.4208 13.738 13.4841C13.3876 12.5473 13.0961 11.776 13.0902 11.77C13.0842 11.7639 12.9882 11.7984 12.8768 11.8466C12.0836 12.1899 11.2161 12.7464 10.2238 13.5486C10.082 13.6631 9.96342 13.7542 9.96019 13.7509C9.93799 13.7284 8.19208 8.74312 8.20308 8.73368C8.25341 8.69054 8.57925 8.45823 8.78313 8.32015C9.45042 7.86817 10.2286 7.43876 10.9637 7.11686C11.1301 7.044 11.2697 6.98085 11.274 6.97651C11.2783 6.97216 10.9865 6.19974 10.6255 5.26001C10.2646 4.32026 9.96932 3.54375 9.96932 3.53442C9.96932 3.51315 10.2331 3.4095 10.6073 3.28368C11.5978 2.95069 12.6709 2.75689 13.8244 2.70267C14.0988 2.68976 14.814 2.70848 15.0163 2.73383ZM2.64549 3.43779C2.61584 3.44594 2.44195 3.49371 2.25908 3.54401C2.07621 3.59428 1.88615 3.6452 1.83673 3.65714C1.7873 3.66909 1.70244 3.69943 1.64814 3.72457C1.59385 3.74969 1.42401 3.80672 1.27072 3.85127C0.905892 3.95732 0.792845 4.01615 0.621099 4.18938C0.199732 4.61439 0.178201 5.28449 0.572178 5.71228C0.770667 5.92782 0.98508 6.03655 1.28828 6.07544L1.45873 6.09731L5.3542 17.0591C7.49669 23.0882 9.28282 28.1192 9.32337 28.2393C9.41713 28.517 9.46111 28.5933 9.61954 28.7534C9.7626 28.898 9.93177 28.9945 10.131 29.0453C10.2895 29.0858 10.5638 29.0726 10.7242 29.0168C11.0742 28.8951 11.3511 28.5848 11.4356 28.2195C11.4761 28.0447 11.4626 27.7894 11.4039 27.6194C11.3797 27.5491 9.60227 22.542 7.45416 16.4925C5.30605 10.443 3.54479 5.47996 3.54026 5.46352C3.53501 5.4445 3.57561 5.38827 3.65199 5.30875C3.74179 5.21526 3.79153 5.14241 3.84973 5.01914C3.9418 4.82417 3.96648 4.71542 3.96648 4.50475C3.96648 4.13326 3.79842 3.81567 3.49154 3.60717C3.29492 3.47359 3.17464 3.43644 2.91508 3.4291C2.79646 3.42574 2.67515 3.42967 2.64549 3.43779ZM14.8668 6.26963C13.7943 6.31913 12.6185 6.53879 11.5779 6.88406C11.4395 6.92997 11.3194 6.97382 11.3111 6.98153C11.2977 6.99398 13.0637 11.7001 13.0935 11.7312C13.1001 11.7381 13.2228 11.7068 13.3661 11.6617C14.002 11.4613 14.7371 11.2974 15.2083 11.2509C15.5848 11.2138 16.4717 11.2519 17.2089 11.3369C17.3503 11.3532 17.4686 11.3636 17.4717 11.36C17.4749 11.3564 17.1803 10.2243 16.8172 8.84411C16.166 6.3691 16.1563 6.33452 16.1089 6.32165C15.9352 6.27448 15.3199 6.2487 14.8668 6.26963ZM19.9142 7.75435C19.9192 7.77594 20.1477 8.79175 20.422 10.0117C20.6963 11.2316 20.9219 12.2317 20.9233 12.234C20.9292 12.2434 21.5905 12.3504 21.8762 12.3881C22.2795 12.4414 22.9972 12.4457 23.4038 12.3972C23.6661 12.366 24.2413 12.2797 24.2507 12.2701C24.2575 12.2633 23.9182 8.1457 23.9102 8.13757C23.9065 8.13381 23.8193 8.15121 23.7165 8.17624C23.171 8.30907 22.5135 8.36243 22.0263 8.31345C21.4149 8.25196 20.7168 8.06741 20.1268 7.81131C19.9238 7.72318 19.9059 7.71838 19.9142 7.75435Z" fill="white"/>
</svg>
